<svg id="SvgjsSvg1001" width="256" height="256" xmlns="http://www.w3.org/2000/svg" version="1.1" xmlns:xlink="http://www.w3.org/1999/xlink" xmlns:svgjs="http://svgjs.com/svgjs"><defs id="SvgjsDefs1002"></defs><g id="SvgjsG1008"><svg xmlns="http://www.w3.org/2000/svg" enable-background="new 0 0 500 500" viewBox="0 0 500 500" width="256" height="256"><path fill="none" stroke="#474747" stroke-linecap="round" stroke-linejoin="round" stroke-miterlimit="10" stroke-width="15" d="M360.874 33.581c0 0 8.511 62.49-156.788 96.826C-31.909 179.428 91.168 451.444 91.168 451.444M343.178 104.775c21.896 60.195-3.245 98.785-3.43 106.651s34.658 81.033 34.658 81.033l-44.259 8.823c0 0 10.87 9.267 13.358 13.399 1.57 2.608-.126 7.958-3.156 8.24 0 0-22.493 6.338-42.145 3.428 12.705 5.696 33.927 15.513 33.927 15.513 3.145 2.668 2.704 7.645-.862 9.717l-13.394 4.858-14.487 40.836c-5.308 10.151-17.303 14.814-28.073 10.914l-93.107-33.84M394.307 18.303c0 0 77.465 119.884-18.104 224.21M214.531 386.096c0 0-62.145 28.653-27.996 96.469" class="colorStroke474747 svgStroke"></path><path fill="#07b9ff" d="M438.024 358.235l-1.91-6.957c-1.132-4.122-6.977-4.122-8.109 0l-1.91 6.957c-.393 1.431-1.511 2.548-2.941 2.941l-6.957 1.91c-4.122 1.132-4.122 6.977 0 8.109l6.957 1.91c1.431.393 2.548 1.511 2.941 2.941l1.91 6.957c1.132 4.122 6.977 4.122 8.109 0l1.91-6.957c.393-1.431 1.511-2.548 2.941-2.941l6.957-1.91c4.122-1.132 4.122-6.977 0-8.109l-6.957-1.91C439.535 360.784 438.417 359.666 438.024 358.235zM79.339 51.576l-1.91-6.957c-1.132-4.122-6.977-4.122-8.109 0l-1.91 6.957c-.393 1.431-1.511 2.548-2.941 2.941l-6.957 1.91c-4.122 1.132-4.122 6.977 0 8.109l6.957 1.91c1.431.393 2.548 1.511 2.941 2.941l1.91 6.957c1.132 4.122 6.977 4.122 8.109 0l1.91-6.957c.393-1.431 1.511-2.548 2.941-2.941l6.957-1.91c4.122-1.132 4.122-6.977 0-8.109l-6.957-1.91C80.85 54.124 79.732 53.006 79.339 51.576zM353.782 428.336l-1.91-6.957c-1.132-4.122-6.977-4.122-8.109 0l-1.91 6.957c-.393 1.431-1.511 2.548-2.941 2.941l-6.957 1.91c-4.122 1.132-4.122 6.977 0 8.109l6.957 1.91c1.431.393 2.548 1.511 2.941 2.941l1.91 6.957c1.132 4.122 6.977 4.122 8.109 0l1.91-6.957c.393-1.431 1.511-2.548 2.941-2.941l6.957-1.91c4.122-1.132 4.122-6.977 0-8.109l-6.957-1.91C355.293 430.884 354.175 429.767 353.782 428.336z" class="color474747 svgShape"></path><circle cx="391.61" cy="464.653" r="8.461" fill="#07b9ff" class="color474747 svgShape"></circle><circle cx="135.172" cy="98.391" r="8.461" fill="#07b9ff" class="color474747 svgShape"></circle><path fill="none" stroke="#474747" stroke-linecap="round" stroke-linejoin="round" stroke-miterlimit="10" stroke-width="15" d="M194.965 180.227c-19.723 12.775-40.582 33.984-43.332 67.285M231.604 163.518c0 0-2.834.717-7.436 2.355M286.725 320.737c0 0 7.156 3.833 11.477 5.611" class="colorStroke474747 svgStroke"></path></svg></g></svg>