<svg id="SvgjsSvg1001" width="256" height="256" xmlns="http://www.w3.org/2000/svg" version="1.1" xmlns:xlink="http://www.w3.org/1999/xlink" xmlns:svgjs="http://svgjs.com/svgjs"><defs id="SvgjsDefs1002"></defs><g id="SvgjsG1008"><svg xmlns="http://www.w3.org/2000/svg" viewBox="0 0 64 64" width="256" height="256"><rect width="24" height="38" x="20" y="23" fill="#07b9ff" class="color29abe2 svgShape"></rect><rect width="12" height="44" x="8" y="17" fill="#e6e6e6" class="colore6e6e6 svgShape"></rect><polygon fill="#006992" points="52 7 52 35 44 35 44 23 32 23 32 7 52 7" class="color009245 svgShape"></polygon><rect width="12" height="26" x="44" y="35" fill="#24b7f1" class="colorf15a24 svgShape"></rect><rect width="4" height="6" x="30" y="55" fill="#999999" class="color999 svgShape"></rect><rect width="2" height="3" x="23" y="30" fill="#67d0f9" class="color67d3f9 svgShape"></rect><rect width="2" height="3" x="27" y="30" fill="#67d0f9" class="color67d3f9 svgShape"></rect><rect width="2" height="3" x="31" y="30" fill="#67d0f9" class="color67d3f9 svgShape"></rect><rect width="2" height="3" x="35" y="30" fill="#67d0f9" class="color67d3f9 svgShape"></rect><rect width="2" height="3" x="35" y="12" fill="#67d0f9" class="color67d3f9 svgShape"></rect><rect width="2" height="3" x="39" y="12" fill="#67d0f9" class="color67d3f9 svgShape"></rect><rect width="2" height="3" x="43" y="12" fill="#67d0f9" class="color67d3f9 svgShape"></rect><rect width="2" height="3" x="47" y="12" fill="#67d0f9" class="color67d3f9 svgShape"></rect><rect width="2" height="3" x="35" y="17" fill="#67d0f9" class="color67d3f9 svgShape"></rect><rect width="2" height="3" x="39" y="17" fill="#67d0f9" class="color67d3f9 svgShape"></rect><rect width="2" height="3" x="43" y="17" fill="#67d0f9" class="color67d3f9 svgShape"></rect><rect width="2" height="3" x="47" y="17" fill="#67d0f9" class="color67d3f9 svgShape"></rect><rect width="2" height="3" x="47" y="22" fill="#67d0f9" class="color67d3f9 svgShape"></rect><rect width="2" height="3" x="47" y="27" fill="#67d0f9" class="color67d3f9 svgShape"></rect><rect width="2" height="3" x="47" y="32" fill="#67d0f9" class="color67d3f9 svgShape"></rect><rect width="2" height="3" x="39" y="30" fill="#67d0f9" class="color67d3f9 svgShape"></rect><rect width="2" height="3" x="23" y="35" fill="#67d0f9" class="color67d3f9 svgShape"></rect><rect width="2" height="3" x="27" y="35" fill="#67d0f9" class="color67d3f9 svgShape"></rect><rect width="2" height="3" x="31" y="35" fill="#67d0f9" class="color67d3f9 svgShape"></rect><rect width="2" height="3" x="35" y="35" fill="#67d0f9" class="color67d3f9 svgShape"></rect><rect width="2" height="3" x="39" y="35" fill="#67d0f9" class="color67d3f9 svgShape"></rect><rect width="2" height="3" x="23" y="40" fill="#67d0f9" class="color67d3f9 svgShape"></rect><rect width="2" height="3" x="27" y="40" fill="#67d0f9" class="color67d3f9 svgShape"></rect><rect width="2" height="3" x="31" y="40" fill="#67d0f9" class="color67d3f9 svgShape"></rect><rect width="2" height="3" x="35" y="40" fill="#67d0f9" class="color67d3f9 svgShape"></rect><rect width="2" height="3" x="39" y="40" fill="#67d0f9" class="color67d3f9 svgShape"></rect><rect width="2" height="3" x="23" y="45" fill="#67d0f9" class="color67d3f9 svgShape"></rect><rect width="2" height="3" x="27" y="45" fill="#67d0f9" class="color67d3f9 svgShape"></rect><rect width="2" height="3" x="11" y="25" fill="#67d0f9" class="color67d3f9 svgShape"></rect><rect width="2" height="3" x="15" y="25" fill="#67d0f9" class="color67d3f9 svgShape"></rect><rect width="2" height="3" x="11" y="20" fill="#67d0f9" class="color67d3f9 svgShape"></rect><rect width="2" height="3" x="15" y="20" fill="#67d0f9" class="color67d3f9 svgShape"></rect><rect width="2" height="3" x="11" y="50" fill="#67d0f9" class="color67d3f9 svgShape"></rect><rect width="2" height="3" x="15" y="50" fill="#67d0f9" class="color67d3f9 svgShape"></rect><rect width="2" height="3" x="13" y="57" fill="#808080" class="colorgray svgShape"></rect><rect width="2" height="3" x="49" y="57" fill="#808080" class="colorgray svgShape"></rect><rect width="2" height="3" x="11" y="30" fill="#67d0f9" class="color67d3f9 svgShape"></rect><rect width="2" height="3" x="15" y="30" fill="#67d0f9" class="color67d3f9 svgShape"></rect><rect width="2" height="3" x="11" y="35" fill="#67d0f9" class="color67d3f9 svgShape"></rect><rect width="2" height="3" x="15" y="35" fill="#67d0f9" class="color67d3f9 svgShape"></rect><rect width="2" height="3" x="11" y="40" fill="#67d0f9" class="color67d3f9 svgShape"></rect><rect width="2" height="3" x="15" y="40" fill="#67d0f9" class="color67d3f9 svgShape"></rect><rect width="2" height="3" x="11" y="45" fill="#67d0f9" class="color67d3f9 svgShape"></rect><rect width="2" height="3" x="15" y="45" fill="#67d0f9" class="color67d3f9 svgShape"></rect><rect width="2" height="3" x="31" y="45" fill="#67d0f9" class="color67d3f9 svgShape"></rect><rect width="2" height="3" x="35" y="45" fill="#67d0f9" class="color67d3f9 svgShape"></rect><rect width="2" height="3" x="39" y="45" fill="#67d0f9" class="color67d3f9 svgShape"></rect><rect width="2" height="3" x="47" y="40" fill="#67d0f9" class="color67d3f9 svgShape"></rect><rect width="2" height="3" x="51" y="40" fill="#67d0f9" class="color67d3f9 svgShape"></rect><rect width="2" height="3" x="47" y="45" fill="#67d0f9" class="color67d3f9 svgShape"></rect><rect width="2" height="3" x="51" y="45" fill="#67d0f9" class="color67d3f9 svgShape"></rect><rect width="2" height="3" x="47" y="50" fill="#67d0f9" class="color67d3f9 svgShape"></rect><rect width="2" height="3" x="51" y="50" fill="#67d0f9" class="color67d3f9 svgShape"></rect><rect width="2" height="5" x="41" y="2" fill="#808080" class="colorgray svgShape"></rect><rect width="2" height="3" x="45" y="4" fill="#808080" class="colorgray svgShape"></rect><rect width="2" height="3" x="11" y="14" fill="#808080" class="colorgray svgShape"></rect><rect width="2" height="5" x="15" y="12" fill="#808080" class="colorgray svgShape"></rect><rect width="2" height="44" x="18" y="17" fill="#d8d8d8" class="colord8d8d8 svgShape"></rect><rect width="60" height="2" x="2" y="60" fill="#4d4d4d" class="color4d4d4d svgShape"></rect><rect width="2" height="25" x="44" y="35" fill="#1ea3d8" class="colord84b1e svgShape"></rect><rect width="2" height="16" x="32" y="7" fill="#03587a" class="color037a38 svgShape"></rect></svg></g></svg>