<svg id="SvgjsSvg1001" width="256" height="256" xmlns="http://www.w3.org/2000/svg" version="1.1" xmlns:xlink="http://www.w3.org/1999/xlink" xmlns:svgjs="http://svgjs.com/svgjs"><defs id="SvgjsDefs1002"></defs><g id="SvgjsG1008"><svg xmlns="http://www.w3.org/2000/svg" viewBox="0 0 32 32" width="256" height="256"><path fill="#07b9ff" d="M8 9C6.346 9 5 7.654 5 6s1.346-3 3-3 3 1.346 3 3-1.346 3-3 3zm0-5c-1.103 0-2 .897-2 2s.897 2 2 2 2-.897 2-2-.897-2-2-2zM5.5 31a.5.5 0 0 1-.5-.5v-5a.5.5 0 0 1 1 0v5a.5.5 0 0 1-.5.5zm-2-10a.5.5 0 0 1-.5-.5v-7C3 11.882 4.311 10 6 10h4.5a.5.5 0 0 1 0 1H6c-1.077 0-2 1.375-2 2.5v7a.5.5 0 0 1-.5.5z" class="color263238 svgShape"></path><path fill="#07b9ff" d="M5 24H2c-.551 0-1-.448-1-1v-2c0-.552.449-1 1-1h3c.551 0 1 .448 1 1v2c0 .552-.449 1-1 1zm0-1v.5-.5zm-3-2v2h2.999L5 21H2zM26 9c-1.654 0-3-1.346-3-3s1.346-3 3-3 3 1.346 3 3-1.346 3-3 3zm0-5c-1.103 0-2 .897-2 2s.897 2 2 2 2-.897 2-2-.897-2-2-2zm3.5 27a.5.5 0 0 1-.5-.5v-10a.5.5 0 0 1 .5-.5.5.5 0 0 0 .5-.5v-6c0-1.125-.923-2.5-2-2.5h-4.5a.5.5 0 0 1 0-1H28c1.689 0 3 1.882 3 3.5v6c0 .652-.418 1.208-1 1.414V30.5a.5.5 0 0 1-.5.5zM24 24h-1.5a.5.5 0 0 1 0-1H24v-2h-1.5a.5.5 0 0 1 0-1H24c.551 0 1 .448 1 1v2c0 .552-.449 1-1 1z" class="color263238 svgShape"></path><path fill="#07b9ff" d="M17 7c-1.654 0-3-1.346-3-3s1.346-3 3-3 3 1.346 3 3-1.346 3-3 3zm0-5c-1.103 0-2 .897-2 2s.897 2 2 2 2-.897 2-2-.897-2-2-2zm9.5 29a.5.5 0 0 1-.5-.5v-7a.5.5 0 0 1 1 0v7a.5.5 0 0 1-.5.5zm-18 0a.5.5 0 0 1-.5-.5v-7a.5.5 0 0 1 1 0v7a.5.5 0 0 1-.5.5zm6 0a.5.5 0 0 1-.5-.5v-6a.5.5 0 0 1 1 0v6a.5.5 0 0 1-.5.5zM20.5 31a.5.5 0 0 1-.5-.5v-11a.5.5 0 0 1 .5-.5.5.5 0 0 0 .5-.5v-7c0-1.125-.923-2.5-2-2.5h-4c-1.077 0-2.063 1.386-2.114 2.521l-.386 8.003a.5.5 0 0 1-.999-.048l.387-8.002C11.961 9.835 13.309 8 15 8h4c1.689 0 3 1.882 3 3.5v7c0 .652-.418 1.208-1 1.414V30.5a.5.5 0 0 1-.5.5zm-3-.5v-9 9z" class="color263238 svgShape"></path><path fill="#07b9ff" d="M17.5 31a.5.5 0 0 1-.5-.5v-9a.5.5 0 0 1 1 0v9a.5.5 0 0 1-.5.5zM14 23h-3c-.551 0-1-.448-1-1v-2c0-.552.449-1 1-1h3c.551 0 1 .448 1 1v2c0 .552-.449 1-1 1zm0-1v.5-.5zm-3-2v2h2.999L14 20h-3z" class="color263238 svgShape"></path></svg></g></svg>