<svg id="SvgjsSvg1001" width="256" height="256" xmlns="http://www.w3.org/2000/svg" version="1.1" xmlns:xlink="http://www.w3.org/1999/xlink" xmlns:svgjs="http://svgjs.com/svgjs"><defs id="SvgjsDefs1002"></defs><g id="SvgjsG1008"><svg xmlns="http://www.w3.org/2000/svg" data-name="Layer 1" viewBox="0 0 168 168" width="256" height="256"><path fill="#07b9ff" d="M137 77.978a5.997 5.997 0 1 0-6-5.997 6.005 6.005 0 0 0 6 5.997zm0-7.996a2 2 0 1 1-2 2 2.002 2.002 0 0 1 2-2zm-22 7.996a7.996 7.996 0 1 0-8-7.996 8.007 8.007 0 0 0 8 7.996zm0-11.994a3.998 3.998 0 1 1-4 3.998 4.003 4.003 0 0 1 4-3.998zm-59 34.984h12a2 2 0 1 0 0-3.998H56a2 2 0 1 0 0 3.998z" class="color0bceb2 svgShape"></path><path fill="#2d4a56" d="M43.453 52.122a3 3 0 1 0-3-3 3.003 3.003 0 0 0 3 3zm0-4.5a1.5 1.5 0 1 1-1.5 1.5 1.501 1.501 0 0 1 1.5-1.5zM141 23a2 2 0 1 0 2 2 2.002 2.002 0 0 0-2-2zm0 3a1 1 0 1 1 1-1 1.001 1.001 0 0 1-1 1zm-25 21.122a2 2 0 1 0 2 2 2.002 2.002 0 0 0-2-2zm0 3a1 1 0 1 1 1-1 1.001 1.001 0 0 1-1 1zM158.305 7a2 2 0 1 0 2 2 2.002 2.002 0 0 0-2-2zm0 3a1 1 0 1 1 1-1 1.001 1.001 0 0 1-1 1zm-141 15a2 2 0 1 0-2 2 2.002 2.002 0 0 0 2-2zm-3 0a1 1 0 1 1 1 1 1.001 1.001 0 0 1-1-1z" class="color2d4356 svgShape"></path><path fill="#07b9ff" d="m10.888 66.011 1.487-1.955-.939-.532-.955 2.19h-.031l-.97-2.175-.955.548 1.471 1.909v.031l-2.301-.297v1.064l2.316-.297v.031l-1.486 1.908.891.564 1.018-2.206h.031l.939 2.19.986-.563-1.502-1.878v-.031l2.362.282V65.73l-2.362.312v-.031zM63.734 11.153l-.856 1.099.514.325.586-1.271h.018l.54 1.262.568-.325-.865-1.081v-.018l1.36.162v-.612l-1.36.18v-.018l.856-1.126-.54-.307-.55 1.261h-.018l-.558-1.252-.551.315.848 1.1v.018l-1.325-.171v.612l1.333-.171v.018zM160.029 62.507v-1.043l-2.317.307v-.031l1.458-1.918-.921-.522-.936 2.148h-.031l-.951-2.133-.937.537 1.443 1.873v.031l-2.256-.292v1.043l2.271-.291v.031l-1.458 1.872.875.552.998-2.164h.03l.921 2.149.967-.552-1.473-1.842v-.031l2.317.276zM96.951 30.788l1.258-1.655-.794-.45-.807 1.853h-.027l-.821-1.84-.808.464 1.245 1.615v.026l-1.947-.251v.9l1.96-.251v.026l-1.258 1.615.754.477.862-1.867h.026l.794 1.853.834-.476-1.271-1.589v-.026l1.999.238v-.9l-1.999.264v-.026zM118.154 151h-8.308a2.006 2.006 0 0 0 0 4h8.308a2.006 2.006 0 0 0 0-4zm-60 0h-8.308a2.006 2.006 0 0 0 0 4h8.308a2.006 2.006 0 0 0 0-4zM104 151H64a2 2 0 0 0 0 4h15.94v2H72a2 2 0 0 0 0 4h25a2 2 0 0 0 0-4h-8.94v-2H104a2 2 0 0 0 0-4z" class="color0bceb2 svgShape"></path><circle cx="2" cy="145" r="2" fill="#2d4a56" class="color2d4356 svgShape"></circle><path fill="#2d4a56" d="M11 143H8a2 2 0 0 0 0 4h3a2 2 0 0 0 0-4zm149 0h-3a2 2 0 0 0 0 4h3a2 2 0 0 0 0-4z" class="color2d4356 svgShape"></path><circle cx="166" cy="145" r="2" fill="#2d4a56" class="color2d4356 svgShape"></circle><path fill="#2d4a56" d="M150.72 143h-15.23a13.98 13.98 0 0 0 4.22-8.89l2.67-33.29c.27-.43.54-.87.79-1.31l3.03-6.26a5.968 5.968 0 0 0-4.2-10.24h-10a6 6 0 0 0-12 0h-10.26a7.996 7.996 0 0 0-15.48 0H90a5.983 5.983 0 0 0-3.1 11.11l2.57 4.86 2.82 35.13a13.98 13.98 0 0 0 4.22 8.89H76.48a.595.595 0 0 0 .06-.11c8.7-16.69 8.14-27.53 6.38-41.02-1.08-8.29-4.75-11.29-9.92-12.35v-1.55a5.993 5.993 0 0 0-3-5.18V37a6 6 0 0 0-12 0v45.79a5.993 5.993 0 0 0-3 5.18v1.27c-9.53 1.07-11.28 5.82-11.62 10.49-1.84 24.86-21.27 32.6-22.09 32.92a1.998 1.998 0 0 0-.47 3.48 55.119 55.119 0 0 0 12.5 6.87H17.28a2.017 2.017 0 1 0 0 4h133.44a2.017 2.017 0 1 0 0-4ZM62 37a2 2 0 0 1 4 0v44.98h-4Zm-3 50.97a2.006 2.006 0 0 1 2-2h6a2.006 2.006 0 0 1 2 2v1.08c-1.95-.1-4.05-.08-6.24-.05-1.11.01-2.28.02-3.49.02-.09 0-.18.01-.27.01Zm-4.74 54.92a43.85 43.85 0 0 1-6.4-.43c-.03 0-.05-.01-.07-.01a.815.815 0 0 0-.1-.01 56.387 56.387 0 0 1-7.84-1.53c-1.49-.06-4.94-1.62-4.94-1.62a50.06 50.06 0 0 1-8.93-4.48c6.35-3.52 19.81-13.44 21.39-34.78.21-2.96.51-7.01 11.9-7.01q1.845 0 3.54-.03c10.54-.12 14.9-.17 16.15 9.4 1.68 12.96 2.2 22.66-5.59 37.94a64.977 64.977 0 0 1-19.11 2.56Zm84.2-43.26a23.988 23.988 0 0 1-6.41 5.97l-.03-10.59h6.81ZM142 87.01a2 2 0 0 1 0 4h-9.99c0-1.61 0-2.98-.01-4Zm-16-6a2.006 2.006 0 0 1 2 2h-4a2.006 2.006 0 0 1 2-2Zm2 6v20.73a26.722 26.722 0 0 1-10.48 2.26 33.269 33.269 0 0 1-13.52-3.28V87.01Zm0 24.99v9.76a6.59 6.59 0 0 0-1.55 1.04c-.51.44-.62.52-1.03.52-.42 0-.53-.08-1.04-.52a5.191 5.191 0 0 0-7.27.01c-.51.43-.62.51-1.03.51s-.52-.08-1.03-.51a5.179 5.179 0 0 0-7.27 0c-.51.43-.62.51-1.03.51s-.52-.08-1.03-.51a6.09 6.09 0 0 0-1.72-1.13v-10.62a36.327 36.327 0 0 0 13.52 2.94 29.941 29.941 0 0 0 10.48-2Zm-26-30.99a3.98 3.98 0 0 1 3.44 2h-6.88a3.98 3.98 0 0 1 3.44-2Zm-12 10a2 2 0 0 1 0-4h10c0 1.02.01 2.39.01 4Zm3.17 4h6.85c0 2.92.01 6.22.01 9.51a20.892 20.892 0 0 1-6.62-6.54Zm32.59 47.98h-19.52a10.045 10.045 0 0 1-9.96-9.2l-2.33-29.04a31.525 31.525 0 0 0 6.09 4.39c.02 7.77.05 14.43.08 14.52a2 2 0 0 0 1.97 1.66c.41 0 .52.08 1.03.52a5.192 5.192 0 0 0 7.26 0c.51-.44.62-.52 1.03-.52.42 0 .53.08 1.04.52a5.192 5.192 0 0 0 7.26 0c.51-.44.62-.52 1.04-.52.41 0 .52.08 1.03.52a5.204 5.204 0 0 0 7.27 0c.51-.44.62-.52 1.04-.52a2 2 0 0 0 2-2c0-.07-.02-6.01-.03-13.18a30.975 30.975 0 0 0 5.89-4.17l-2.23 27.82a10.045 10.045 0 0 1-9.96 9.2Z" class="color2d4356 svgShape"></path><path fill="#07b9ff" d="M66.85 126.73a39.801 39.801 0 0 1-12.59 16.16 43.85 43.85 0 0 1-6.4-.43c-.03 0-.05-.01-.07-.01a.815.815 0 0 0-.1-.01 2.962 2.962 0 0 1 .41-.28 36 36 0 0 0 15.05-16.97 2.004 2.004 0 1 1 3.7 1.54zm-15.12 1.22a40.787 40.787 0 0 1-11.88 12.96c-1.49-.06-4.94-1.62-4.94-1.62a1.886 1.886 0 0 1 .18-.12 36.226 36.226 0 0 0 13.18-13.21 1.996 1.996 0 1 1 3.46 1.99z" class="color0bceb2 svgShape"></path></svg></g></svg>