<svg id="SvgjsSvg1090" width="256" height="256" xmlns="http://www.w3.org/2000/svg" version="1.1" xmlns:xlink="http://www.w3.org/1999/xlink" xmlns:svgjs="http://svgjs.com/svgjs"><defs id="SvgjsDefs1091"></defs><g id="SvgjsG1092"><svg xmlns="http://www.w3.org/2000/svg" viewBox="0 0 64 64" width="256" height="256"><path fill="none" stroke="#07b9ff" stroke-miterlimit="10" stroke-width="2" d="M58 56V29M37 22H8c-.512 0-1.023.195-1.414.586S6 23.488 6 24v32m34 0-2 2H26l-2-2H1v2c0 1.023.391 2.047 1.172 2.828S3.977 62 5 62h54a3.987 3.987 0 0 0 2.828-1.172A3.988 3.988 0 0 0 63 58v-2H40z" class="colorStroke403E3E svgStroke"></path><path fill="none" stroke="#07b9ff" stroke-miterlimit="10" stroke-width="2" d="M10 26h26v26H10z" class="colorStroke403E3E svgStroke"></path><path fill="none" stroke="#07b9ff" stroke-miterlimit="10" stroke-width="2" d="M31 46c0 1.656-3.58 2-8 2s-8-.344-8-2M31 46v-3l-5-3-1-1M15 46v-3l5-3 1-1M27 35c0 2.2-1.8 4-4 4s-4-1.8-4-4v-1c0-2.2 1.8-4 4-4s4 1.8 4 4v1zM42 49h2M46 49h2M50 49h2" class="colorStroke403E3E svgStroke"></path><g fill="none" stroke="#07b9ff" stroke-miterlimit="10" stroke-width="2" class="colorStroke403E3E svgStroke"><path stroke-linejoin="round" d="M40 10v20l4-4h19V10z" fill="#000000" class="color000 svgShape"></path><path d="M44 14h6M52 14h7M44 18h11M53 22h4M44 22h7" fill="#000000" class="color000 svgShape"></path></g><path fill="none" stroke="#07b9ff" stroke-linejoin="round" stroke-miterlimit="10" stroke-width="2" d="M1 2v20l4-4h26V2zM5 6h16M23 6h5M5 10h23M5 14h7M14 14h4" class="colorStroke403E3E svgStroke"></path></svg></g></svg>