<svg id="SvgjsSvg1001" width="256" height="256" xmlns="http://www.w3.org/2000/svg" version="1.1" xmlns:xlink="http://www.w3.org/1999/xlink" xmlns:svgjs="http://svgjs.com/svgjs"><defs id="SvgjsDefs1002"></defs><g id="SvgjsG1008"><svg xmlns="http://www.w3.org/2000/svg" viewBox="0 0 100 100" width="256" height="256"><path d="M90.113 23.463c-6.236-6.229-16.343-6.229-22.573 0l-5.189 5.192-5.189-5.192c-3.68-3.678-8.709-5.166-13.495-4.5l-2.363 26.212c2.197-3.551 6.115-5.93 10.589-5.93h1.056c1.856-3.28 5.373-5.503 9.403-5.503 5.956 0 10.803 4.847 10.803 10.803s-4.847 10.803-10.803 10.803c-4.03 0-7.546-2.223-9.403-5.503h-1.056a1.857 1.857 0 0 0-1.855 1.856v9.782L62.35 73.797 90.113 46.04c6.227-6.233 6.227-16.345 0-22.577zm-55.266-.228c-.082.079-.171.147-.252.228-5.627 5.624-6.158 14.399-1.629 20.64l1.881-20.868z" fill="#07b9ff" class="color000 svgShape"></path><path d="M54.754 47.044c1.053 3.191 4.058 5.502 7.597 5.502 4.412 0 8.002-3.59 8.002-8.002 0-4.412-3.59-8.002-8.002-8.002-3.539 0-6.543 2.311-7.597 5.502h-2.862c-5.324 0-9.655 4.332-9.655 9.656v26.058c0 4.592-3.735 8.327-8.327 8.327-4.592 0-8.327-3.735-8.327-8.327V61.909c7.705-1.125 13.309-7.409 13.953-16.075l-1.095-.082 2.483-27.544a6.498 6.498 0 0 0-1.505-4.774 6.499 6.499 0 0 0-4.44-2.312l-.186-.016a3.497 3.497 0 0 0-3.241-2.191h-2.295a3.5 3.5 0 1 0 0 7h2.295a3.493 3.493 0 0 0 3.154-2.007l.03.003a3.72 3.72 0 0 1 2.54 1.322c.642.766.947 1.735.86 2.727l-2.487 27.585-1.098-.082c-.509 6.856-5.225 11.645-11.467 11.645S12.127 52.32 11.618 45.463l-1.099.082-2.488-27.581a3.72 3.72 0 0 1 .86-2.73 3.717 3.717 0 0 1 2.54-1.322l.029-.003a3.49 3.49 0 0 0 3.154 2.006h2.296a3.5 3.5 0 1 0 0-7h-2.296a3.497 3.497 0 0 0-3.241 2.191l-.185.016a6.495 6.495 0 0 0-4.44 2.312 6.504 6.504 0 0 0-1.505 4.778l2.482 27.541-1.095.081c.644 8.666 6.247 14.95 13.952 16.075v15.849c0 7.349 5.979 13.327 13.327 13.327 7.349 0 13.327-5.979 13.327-13.327V51.7a4.66 4.66 0 0 1 4.655-4.656h2.863zm7.597-6.674a4.174 4.174 0 1 1 0 8.349 4.174 4.174 0 0 1 0-8.349z" fill="#07b9ff" class="color000 svgShape"></path></svg></g></svg>