<svg xmlns="http://www.w3.org/2000/svg" xmlns:xlink="http://www.w3.org/1999/xlink" viewBox="0 0 1080 1080" width="1080" height="1080" preserveAspectRatio="xMidYMid meet" style="width: 100%; height: 100%; transform: translate3d(0px, 0px, 0px); content-visibility: visible;"><defs><clipPath id="__lottie_element_7476"><rect width="1080" height="1080" x="0" y="0"></rect></clipPath></defs><g clip-path="url(#__lottie_element_7476)"><g transform="matrix(-0.6229366064071655,-0.46941447257995605,0.4694143831729889,-0.6229367256164551,936.0641479492188,1050.4217529296875)" opacity="1" style="display: block;"><g opacity="1" transform="matrix(1,0,0,1,858.47998046875,318.802001953125)"><g opacity="1" transform="matrix(1,0,0,1,0,0)"><path fill="rgb(7,185,255)" fill-opacity="1" d=" M83.83200073242188,165.5 C83.83200073242188,165.5 -83.83200073242188,165.5 -83.83200073242188,165.5 C-92.76100158691406,165.5 -100,158.26100158691406 -100,149.33200073242188 C-100,149.33200073242188 -100,-149.33200073242188 -100,-149.33200073242188 C-100,-158.26100158691406 -92.76100158691406,-165.5 -83.83200073242188,-165.5 C-83.83200073242188,-165.5 83.83200073242188,-165.5 83.83200073242188,-165.5 C92.76100158691406,-165.5 100,-158.26100158691406 100,-149.33200073242188 C100,-149.33200073242188 100,149.33200073242188 100,149.33200073242188 C100,158.26100158691406 92.76100158691406,165.5 83.83200073242188,165.5z"></path><path stroke-linecap="butt" stroke-linejoin="miter" fill-opacity="0" stroke-miterlimit="10" stroke="rgb(0,0,0)" stroke-opacity="1" stroke-width="5" d=" M83.83200073242188,165.5 C83.83200073242188,165.5 -83.83200073242188,165.5 -83.83200073242188,165.5 C-92.76100158691406,165.5 -100,158.26100158691406 -100,149.33200073242188 C-100,149.33200073242188 -100,-149.33200073242188 -100,-149.33200073242188 C-100,-158.26100158691406 -92.76100158691406,-165.5 -83.83200073242188,-165.5 C-83.83200073242188,-165.5 83.83200073242188,-165.5 83.83200073242188,-165.5 C92.76100158691406,-165.5 100,-158.26100158691406 100,-149.33200073242188 C100,-149.33200073242188 100,149.33200073242188 100,149.33200073242188 C100,158.26100158691406 92.76100158691406,165.5 83.83200073242188,165.5z"></path></g></g><g opacity="1" transform="matrix(1,0,0,1,858.4810180664062,318.80499267578125)"><g opacity="1" transform="matrix(1,0,0,1,0,0)"><path fill="rgb(7,185,255)" fill-opacity="1" d=" M84,-128.72000122070312 C84,-128.72000122070312 84,130.61000061035156 84,130.61000061035156 C82.76000213623047,130.32000732421875 81.47000122070312,130.1699981689453 80.13999938964844,130.1699981689453 C70.55000305175781,130.1699981689453 62.779998779296875,137.94000244140625 62.779998779296875,147.52999877929688 C62.779998779296875,148.1999969482422 62.81999969482422,148.86000061035156 62.900001525878906,149.5 C62.900001525878906,149.5 -65.4000015258789,149.5 -65.4000015258789,149.5 C-65.31999969482422,148.86000061035156 -65.27999877929688,148.1999969482422 -65.27999877929688,147.52999877929688 C-65.27999877929688,137.94000244140625 -73.05000305175781,130.1699981689453 -82.63999938964844,130.1699981689453 C-83.0999984741211,130.1699981689453 -83.55000305175781,130.19000244140625 -84,130.22999572753906 C-84,130.22999572753906 -84,-128.33999633789062 -84,-128.33999633789062 C-83.55000305175781,-128.3000030517578 -83.0999984741211,-128.27999877929688 -82.63999938964844,-128.27999877929688 C-73.05000305175781,-128.27999877929688 -65.27999877929688,-136.0500030517578 -65.27999877929688,-145.63999938964844 C-65.27999877929688,-146.97000122070312 -65.43000030517578,-148.25999450683594 -65.72000122070312,-149.5 C-65.72000122070312,-149.5 63.220001220703125,-149.5 63.220001220703125,-149.5 C62.93000030517578,-148.25999450683594 62.779998779296875,-146.97000122070312 62.779998779296875,-145.63999938964844 C62.779998779296875,-136.0500030517578 70.55000305175781,-128.27999877929688 80.13999938964844,-128.27999877929688 C81.47000122070312,-128.27999877929688 82.76000213623047,-128.42999267578125 84,-128.72000122070312z"></path><path stroke-linecap="round" stroke-linejoin="round" fill-opacity="0" stroke="rgb(0,0,0)" stroke-opacity="1" stroke-width="5" d=" M84,-128.72000122070312 C84,-128.72000122070312 84,130.61000061035156 84,130.61000061035156 C82.76000213623047,130.32000732421875 81.47000122070312,130.1699981689453 80.13999938964844,130.1699981689453 C70.55000305175781,130.1699981689453 62.779998779296875,137.94000244140625 62.779998779296875,147.52999877929688 C62.779998779296875,148.1999969482422 62.81999969482422,148.86000061035156 62.900001525878906,149.5 C62.900001525878906,149.5 -65.4000015258789,149.5 -65.4000015258789,149.5 C-65.31999969482422,148.86000061035156 -65.27999877929688,148.1999969482422 -65.27999877929688,147.52999877929688 C-65.27999877929688,137.94000244140625 -73.05000305175781,130.1699981689453 -82.63999938964844,130.1699981689453 C-83.0999984741211,130.1699981689453 -83.55000305175781,130.19000244140625 -84,130.22999572753906 C-84,130.22999572753906 -84,-128.33999633789062 -84,-128.33999633789062 C-83.55000305175781,-128.3000030517578 -83.0999984741211,-128.27999877929688 -82.63999938964844,-128.27999877929688 C-73.05000305175781,-128.27999877929688 -65.27999877929688,-136.0500030517578 -65.27999877929688,-145.63999938964844 C-65.27999877929688,-146.97000122070312 -65.43000030517578,-148.25999450683594 -65.72000122070312,-149.5 C-65.72000122070312,-149.5 63.220001220703125,-149.5 63.220001220703125,-149.5 C62.93000030517578,-148.25999450683594 62.779998779296875,-146.97000122070312 62.779998779296875,-145.63999938964844 C62.779998779296875,-136.0500030517578 70.55000305175781,-128.27999877929688 80.13999938964844,-128.27999877929688 C81.47000122070312,-128.27999877929688 82.76000213623047,-128.42999267578125 84,-128.72000122070312z"></path></g></g><g opacity="1" transform="matrix(1,0,0,1,858.4810180664062,318.80499267578125)"><g opacity="1" transform="matrix(1,0,0,1,0,0)"><path fill="rgb(14,96,128)" fill-opacity="1" d=" M0,-46.69649887084961 C25.77179718017578,-46.69649887084961 46.69649887084961,-25.77179718017578 46.69649887084961,0 C46.69649887084961,25.77179718017578 25.77179718017578,46.69649887084961 0,46.69649887084961 C-25.77179718017578,46.69649887084961 -46.69649887084961,25.77179718017578 -46.69649887084961,0 C-46.69649887084961,-25.77179718017578 -25.77179718017578,-46.69649887084961 0,-46.69649887084961z"></path></g></g><g opacity="1" transform="matrix(1,0,0,1,858.4810180664062,222.80499267578125)"><g opacity="1" transform="matrix(1,0,0,1,0,0)"><path fill="rgb(14,96,128)" fill-opacity="1" d=" M0,-18.274499893188477 C10.08569622039795,-18.274499893188477 18.274499893188477,-10.08569622039795 18.274499893188477,0 C18.274499893188477,10.08569622039795 10.08569622039795,18.274499893188477 0,18.274499893188477 C-10.08569622039795,18.274499893188477 -18.274499893188477,10.08569622039795 -18.274499893188477,0 C-18.274499893188477,-10.08569622039795 -10.08569622039795,-18.274499893188477 0,-18.274499893188477z"></path></g></g><g opacity="1" transform="matrix(1,0,0,1,858.4810180664062,415.5769958496094)"><g opacity="1" transform="matrix(1,0,0,1,0,0)"><path fill="rgb(14,96,128)" fill-opacity="1" d=" M0,-18.274499893188477 C10.08569622039795,-18.274499893188477 18.274499893188477,-10.08569622039795 18.274499893188477,0 C18.274499893188477,10.08569622039795 10.08569622039795,18.274499893188477 0,18.274499893188477 C-10.08569622039795,18.274499893188477 -18.274499893188477,10.08569622039795 -18.274499893188477,0 C-18.274499893188477,-10.08569622039795 -10.08569622039795,-18.274499893188477 0,-18.274499893188477z"></path></g></g><g opacity="1" transform="matrix(0,-1,1,0,858.47998046875,318.80499267578125)"><g opacity="1" transform="matrix(1,0,0,1,0,0)"><path fill="rgb(7,185,255)" fill-opacity="1" d=" M3.190999984741211,-5.089000225067139 C-3.1470000743865967,-7.710999965667725 -4.216000080108643,-9.08899974822998 -4.216000080108643,-11.185999870300293 C-4.216000080108643,-13.116999626159668 -2.8010001182556152,-15.180000305175781 1.1720000505447388,-15.180000305175781 C5.276000022888184,-15.180000305175781 7.857999801635742,-13.704000473022461 8.961999893188477,-13.074000358581543 C8.961999893188477,-13.074000358581543 10.994999885559082,-11.911999702453613 10.994999885559082,-11.911999702453613 C10.994999885559082,-11.911999702453613 14.164999961853027,-20.2810001373291 14.164999961853027,-20.2810001373291 C14.164999961853027,-20.2810001373291 12.708000183105469,-21.13599967956543 12.708000183105469,-21.13599967956543 C10.310999870300293,-22.541000366210938 7.656000137329102,-23.389999389648438 4.636000156402588,-23.714000701904297 C4.636000156402588,-23.714000701904297 4.636000156402588,-30.610000610351562 4.636000156402588,-30.610000610351562 C4.636000156402588,-30.610000610351562 -3.686000108718872,-30.610000610351562 -3.686000108718872,-30.610000610351562 C-3.686000108718872,-30.610000610351562 -3.686000108718872,-23.191999435424805 -3.686000108718872,-23.191999435424805 C-10.135000228881836,-21.52199935913086 -14.210000038146973,-16.628999710083008 -14.210000038146973,-10.350000381469727 C-14.210000038146973,-2.496999979019165 -7.755000114440918,1.093999981880188 -1.4620000123977661,3.561000108718872 C4.36299991607666,5.922999858856201 5.165999889373779,8.052000045776367 5.165999889373779,10.00100040435791 C5.165999889373779,12.890000343322754 2.63700008392334,14.831999778747559 -1.128000020980835,14.831999778747559 C-4.264999866485596,14.831999778747559 -7.519000053405762,13.862000465393066 -10.055999755859375,12.170999526977539 C-10.055999755859375,12.170999526977539 -12.185999870300293,10.75100040435791 -12.185999870300293,10.75100040435791 C-12.185999870300293,10.75100040435791 -15.229000091552734,19.253999710083008 -15.229000091552734,19.253999710083008 C-15.229000091552734,19.253999710083008 -13.99899959564209,20.131999969482422 -13.99899959564209,20.131999969482422 C-11.602999687194824,21.8439998626709 -7.89900016784668,23.076000213623047 -4.173999786376953,23.452999114990234 C-4.173999786376953,23.452999114990234 -4.173999786376953,30.610000610351562 -4.173999786376953,30.610000610351562 C-4.173999786376953,30.610000610351562 4.2170000076293945,30.610000610351562 4.2170000076293945,30.610000610351562 C4.2170000076293945,30.610000610351562 4.2170000076293945,22.979999542236328 4.2170000076293945,22.979999542236328 C10.871999740600586,21.236000061035156 15.229000091552734,16 15.229000091552734,9.513999938964844 C15.229000091552734,0.921999990940094 8.791000366210938,-2.805999994277954 3.190999984741211,-5.089000225067139z"></path></g></g></g><g transform="matrix(-0.6886996030807495,-0.3661867678165436,0.3661867082118988,-0.6886997222900391,1014.921630859375,961.561767578125)" opacity="1" style="display: block;"><g opacity="1" transform="matrix(1,0,0,1,858.47998046875,318.802001953125)"><g opacity="1" transform="matrix(1,0,0,1,0,0)"><path fill="rgb(7,185,255)" fill-opacity="1" d=" M83.83200073242188,165.5 C83.83200073242188,165.5 -83.83200073242188,165.5 -83.83200073242188,165.5 C-92.76100158691406,165.5 -100,158.26100158691406 -100,149.33200073242188 C-100,149.33200073242188 -100,-149.33200073242188 -100,-149.33200073242188 C-100,-158.26100158691406 -92.76100158691406,-165.5 -83.83200073242188,-165.5 C-83.83200073242188,-165.5 83.83200073242188,-165.5 83.83200073242188,-165.5 C92.76100158691406,-165.5 100,-158.26100158691406 100,-149.33200073242188 C100,-149.33200073242188 100,149.33200073242188 100,149.33200073242188 C100,158.26100158691406 92.76100158691406,165.5 83.83200073242188,165.5z"></path><path stroke-linecap="butt" stroke-linejoin="miter" fill-opacity="0" stroke-miterlimit="10" stroke="rgb(0,0,0)" stroke-opacity="1" stroke-width="5" d=" M83.83200073242188,165.5 C83.83200073242188,165.5 -83.83200073242188,165.5 -83.83200073242188,165.5 C-92.76100158691406,165.5 -100,158.26100158691406 -100,149.33200073242188 C-100,149.33200073242188 -100,-149.33200073242188 -100,-149.33200073242188 C-100,-158.26100158691406 -92.76100158691406,-165.5 -83.83200073242188,-165.5 C-83.83200073242188,-165.5 83.83200073242188,-165.5 83.83200073242188,-165.5 C92.76100158691406,-165.5 100,-158.26100158691406 100,-149.33200073242188 C100,-149.33200073242188 100,149.33200073242188 100,149.33200073242188 C100,158.26100158691406 92.76100158691406,165.5 83.83200073242188,165.5z"></path></g></g><g opacity="1" transform="matrix(1,0,0,1,858.4810180664062,318.80499267578125)"><g opacity="1" transform="matrix(1,0,0,1,0,0)"><path fill="rgb(7,185,255)" fill-opacity="1" d=" M84,-128.72000122070312 C84,-128.72000122070312 84,130.61000061035156 84,130.61000061035156 C82.76000213623047,130.32000732421875 81.47000122070312,130.1699981689453 80.13999938964844,130.1699981689453 C70.55000305175781,130.1699981689453 62.779998779296875,137.94000244140625 62.779998779296875,147.52999877929688 C62.779998779296875,148.1999969482422 62.81999969482422,148.86000061035156 62.900001525878906,149.5 C62.900001525878906,149.5 -65.4000015258789,149.5 -65.4000015258789,149.5 C-65.31999969482422,148.86000061035156 -65.27999877929688,148.1999969482422 -65.27999877929688,147.52999877929688 C-65.27999877929688,137.94000244140625 -73.05000305175781,130.1699981689453 -82.63999938964844,130.1699981689453 C-83.0999984741211,130.1699981689453 -83.55000305175781,130.19000244140625 -84,130.22999572753906 C-84,130.22999572753906 -84,-128.33999633789062 -84,-128.33999633789062 C-83.55000305175781,-128.3000030517578 -83.0999984741211,-128.27999877929688 -82.63999938964844,-128.27999877929688 C-73.05000305175781,-128.27999877929688 -65.27999877929688,-136.0500030517578 -65.27999877929688,-145.63999938964844 C-65.27999877929688,-146.97000122070312 -65.43000030517578,-148.25999450683594 -65.72000122070312,-149.5 C-65.72000122070312,-149.5 63.220001220703125,-149.5 63.220001220703125,-149.5 C62.93000030517578,-148.25999450683594 62.779998779296875,-146.97000122070312 62.779998779296875,-145.63999938964844 C62.779998779296875,-136.0500030517578 70.55000305175781,-128.27999877929688 80.13999938964844,-128.27999877929688 C81.47000122070312,-128.27999877929688 82.76000213623047,-128.42999267578125 84,-128.72000122070312z"></path><path stroke-linecap="round" stroke-linejoin="round" fill-opacity="0" stroke="rgb(0,0,0)" stroke-opacity="1" stroke-width="5" d=" M84,-128.72000122070312 C84,-128.72000122070312 84,130.61000061035156 84,130.61000061035156 C82.76000213623047,130.32000732421875 81.47000122070312,130.1699981689453 80.13999938964844,130.1699981689453 C70.55000305175781,130.1699981689453 62.779998779296875,137.94000244140625 62.779998779296875,147.52999877929688 C62.779998779296875,148.1999969482422 62.81999969482422,148.86000061035156 62.900001525878906,149.5 C62.900001525878906,149.5 -65.4000015258789,149.5 -65.4000015258789,149.5 C-65.31999969482422,148.86000061035156 -65.27999877929688,148.1999969482422 -65.27999877929688,147.52999877929688 C-65.27999877929688,137.94000244140625 -73.05000305175781,130.1699981689453 -82.63999938964844,130.1699981689453 C-83.0999984741211,130.1699981689453 -83.55000305175781,130.19000244140625 -84,130.22999572753906 C-84,130.22999572753906 -84,-128.33999633789062 -84,-128.33999633789062 C-83.55000305175781,-128.3000030517578 -83.0999984741211,-128.27999877929688 -82.63999938964844,-128.27999877929688 C-73.05000305175781,-128.27999877929688 -65.27999877929688,-136.0500030517578 -65.27999877929688,-145.63999938964844 C-65.27999877929688,-146.97000122070312 -65.43000030517578,-148.25999450683594 -65.72000122070312,-149.5 C-65.72000122070312,-149.5 63.220001220703125,-149.5 63.220001220703125,-149.5 C62.93000030517578,-148.25999450683594 62.779998779296875,-146.97000122070312 62.779998779296875,-145.63999938964844 C62.779998779296875,-136.0500030517578 70.55000305175781,-128.27999877929688 80.13999938964844,-128.27999877929688 C81.47000122070312,-128.27999877929688 82.76000213623047,-128.42999267578125 84,-128.72000122070312z"></path></g></g><g opacity="1" transform="matrix(1,0,0,1,858.4810180664062,318.80499267578125)"><g opacity="1" transform="matrix(1,0,0,1,0,0)"><path fill="rgb(14,96,128)" fill-opacity="1" d=" M0,-46.69649887084961 C25.77179718017578,-46.69649887084961 46.69649887084961,-25.77179718017578 46.69649887084961,0 C46.69649887084961,25.77179718017578 25.77179718017578,46.69649887084961 0,46.69649887084961 C-25.77179718017578,46.69649887084961 -46.69649887084961,25.77179718017578 -46.69649887084961,0 C-46.69649887084961,-25.77179718017578 -25.77179718017578,-46.69649887084961 0,-46.69649887084961z"></path></g></g><g opacity="1" transform="matrix(1,0,0,1,858.4810180664062,222.80499267578125)"><g opacity="1" transform="matrix(1,0,0,1,0,0)"><path fill="rgb(14,96,128)" fill-opacity="1" d=" M0,-18.274499893188477 C10.08569622039795,-18.274499893188477 18.274499893188477,-10.08569622039795 18.274499893188477,0 C18.274499893188477,10.08569622039795 10.08569622039795,18.274499893188477 0,18.274499893188477 C-10.08569622039795,18.274499893188477 -18.274499893188477,10.08569622039795 -18.274499893188477,0 C-18.274499893188477,-10.08569622039795 -10.08569622039795,-18.274499893188477 0,-18.274499893188477z"></path></g></g><g opacity="1" transform="matrix(1,0,0,1,858.4810180664062,415.5769958496094)"><g opacity="1" transform="matrix(1,0,0,1,0,0)"><path fill="rgb(14,96,128)" fill-opacity="1" d=" M0,-18.274499893188477 C10.08569622039795,-18.274499893188477 18.274499893188477,-10.08569622039795 18.274499893188477,0 C18.274499893188477,10.08569622039795 10.08569622039795,18.274499893188477 0,18.274499893188477 C-10.08569622039795,18.274499893188477 -18.274499893188477,10.08569622039795 -18.274499893188477,0 C-18.274499893188477,-10.08569622039795 -10.08569622039795,-18.274499893188477 0,-18.274499893188477z"></path></g></g><g opacity="1" transform="matrix(0,-1,1,0,858.47998046875,318.80499267578125)"><g opacity="1" transform="matrix(1,0,0,1,0,0)"><path fill="rgb(7,185,255)" fill-opacity="1" d=" M3.190999984741211,-5.089000225067139 C-3.1470000743865967,-7.710999965667725 -4.216000080108643,-9.08899974822998 -4.216000080108643,-11.185999870300293 C-4.216000080108643,-13.116999626159668 -2.8010001182556152,-15.180000305175781 1.1720000505447388,-15.180000305175781 C5.276000022888184,-15.180000305175781 7.857999801635742,-13.704000473022461 8.961999893188477,-13.074000358581543 C8.961999893188477,-13.074000358581543 10.994999885559082,-11.911999702453613 10.994999885559082,-11.911999702453613 C10.994999885559082,-11.911999702453613 14.164999961853027,-20.2810001373291 14.164999961853027,-20.2810001373291 C14.164999961853027,-20.2810001373291 12.708000183105469,-21.13599967956543 12.708000183105469,-21.13599967956543 C10.310999870300293,-22.541000366210938 7.656000137329102,-23.389999389648438 4.636000156402588,-23.714000701904297 C4.636000156402588,-23.714000701904297 4.636000156402588,-30.610000610351562 4.636000156402588,-30.610000610351562 C4.636000156402588,-30.610000610351562 -3.686000108718872,-30.610000610351562 -3.686000108718872,-30.610000610351562 C-3.686000108718872,-30.610000610351562 -3.686000108718872,-23.191999435424805 -3.686000108718872,-23.191999435424805 C-10.135000228881836,-21.52199935913086 -14.210000038146973,-16.628999710083008 -14.210000038146973,-10.350000381469727 C-14.210000038146973,-2.496999979019165 -7.755000114440918,1.093999981880188 -1.4620000123977661,3.561000108718872 C4.36299991607666,5.922999858856201 5.165999889373779,8.052000045776367 5.165999889373779,10.00100040435791 C5.165999889373779,12.890000343322754 2.63700008392334,14.831999778747559 -1.128000020980835,14.831999778747559 C-4.264999866485596,14.831999778747559 -7.519000053405762,13.862000465393066 -10.055999755859375,12.170999526977539 C-10.055999755859375,12.170999526977539 -12.185999870300293,10.75100040435791 -12.185999870300293,10.75100040435791 C-12.185999870300293,10.75100040435791 -15.229000091552734,19.253999710083008 -15.229000091552734,19.253999710083008 C-15.229000091552734,19.253999710083008 -13.99899959564209,20.131999969482422 -13.99899959564209,20.131999969482422 C-11.602999687194824,21.8439998626709 -7.89900016784668,23.076000213623047 -4.173999786376953,23.452999114990234 C-4.173999786376953,23.452999114990234 -4.173999786376953,30.610000610351562 -4.173999786376953,30.610000610351562 C-4.173999786376953,30.610000610351562 4.2170000076293945,30.610000610351562 4.2170000076293945,30.610000610351562 C4.2170000076293945,30.610000610351562 4.2170000076293945,22.979999542236328 4.2170000076293945,22.979999542236328 C10.871999740600586,21.236000061035156 15.229000091552734,16 15.229000091552734,9.513999938964844 C15.229000091552734,0.921999990940094 8.791000366210938,-2.805999994277954 3.190999984741211,-5.089000225067139z"></path></g></g></g><g transform="matrix(-0.7568307518959045,-0.18869851529598236,0.18869847059249878,-0.7568309307098389,1098.4332275390625,808.8873901367188)" opacity="1" style="display: block;"><g opacity="1" transform="matrix(1,0,0,1,858.47998046875,318.802001953125)"><g opacity="1" transform="matrix(1,0,0,1,0,0)"><path fill="rgb(7,185,255)" fill-opacity="1" d=" M83.83200073242188,165.5 C83.83200073242188,165.5 -83.83200073242188,165.5 -83.83200073242188,165.5 C-92.76100158691406,165.5 -100,158.26100158691406 -100,149.33200073242188 C-100,149.33200073242188 -100,-149.33200073242188 -100,-149.33200073242188 C-100,-158.26100158691406 -92.76100158691406,-165.5 -83.83200073242188,-165.5 C-83.83200073242188,-165.5 83.83200073242188,-165.5 83.83200073242188,-165.5 C92.76100158691406,-165.5 100,-158.26100158691406 100,-149.33200073242188 C100,-149.33200073242188 100,149.33200073242188 100,149.33200073242188 C100,158.26100158691406 92.76100158691406,165.5 83.83200073242188,165.5z"></path><path stroke-linecap="butt" stroke-linejoin="miter" fill-opacity="0" stroke-miterlimit="10" stroke="rgb(0,0,0)" stroke-opacity="1" stroke-width="5" d=" M83.83200073242188,165.5 C83.83200073242188,165.5 -83.83200073242188,165.5 -83.83200073242188,165.5 C-92.76100158691406,165.5 -100,158.26100158691406 -100,149.33200073242188 C-100,149.33200073242188 -100,-149.33200073242188 -100,-149.33200073242188 C-100,-158.26100158691406 -92.76100158691406,-165.5 -83.83200073242188,-165.5 C-83.83200073242188,-165.5 83.83200073242188,-165.5 83.83200073242188,-165.5 C92.76100158691406,-165.5 100,-158.26100158691406 100,-149.33200073242188 C100,-149.33200073242188 100,149.33200073242188 100,149.33200073242188 C100,158.26100158691406 92.76100158691406,165.5 83.83200073242188,165.5z"></path></g></g><g opacity="1" transform="matrix(1,0,0,1,858.4810180664062,318.80499267578125)"><g opacity="1" transform="matrix(1,0,0,1,0,0)"><path fill="rgb(7,185,255)" fill-opacity="1" d=" M84,-128.72000122070312 C84,-128.72000122070312 84,130.61000061035156 84,130.61000061035156 C82.76000213623047,130.32000732421875 81.47000122070312,130.1699981689453 80.13999938964844,130.1699981689453 C70.55000305175781,130.1699981689453 62.779998779296875,137.94000244140625 62.779998779296875,147.52999877929688 C62.779998779296875,148.1999969482422 62.81999969482422,148.86000061035156 62.900001525878906,149.5 C62.900001525878906,149.5 -65.4000015258789,149.5 -65.4000015258789,149.5 C-65.31999969482422,148.86000061035156 -65.27999877929688,148.1999969482422 -65.27999877929688,147.52999877929688 C-65.27999877929688,137.94000244140625 -73.05000305175781,130.1699981689453 -82.63999938964844,130.1699981689453 C-83.0999984741211,130.1699981689453 -83.55000305175781,130.19000244140625 -84,130.22999572753906 C-84,130.22999572753906 -84,-128.33999633789062 -84,-128.33999633789062 C-83.55000305175781,-128.3000030517578 -83.0999984741211,-128.27999877929688 -82.63999938964844,-128.27999877929688 C-73.05000305175781,-128.27999877929688 -65.27999877929688,-136.0500030517578 -65.27999877929688,-145.63999938964844 C-65.27999877929688,-146.97000122070312 -65.43000030517578,-148.25999450683594 -65.72000122070312,-149.5 C-65.72000122070312,-149.5 63.220001220703125,-149.5 63.220001220703125,-149.5 C62.93000030517578,-148.25999450683594 62.779998779296875,-146.97000122070312 62.779998779296875,-145.63999938964844 C62.779998779296875,-136.0500030517578 70.55000305175781,-128.27999877929688 80.13999938964844,-128.27999877929688 C81.47000122070312,-128.27999877929688 82.76000213623047,-128.42999267578125 84,-128.72000122070312z"></path><path stroke-linecap="round" stroke-linejoin="round" fill-opacity="0" stroke="rgb(0,0,0)" stroke-opacity="1" stroke-width="5" d=" M84,-128.72000122070312 C84,-128.72000122070312 84,130.61000061035156 84,130.61000061035156 C82.76000213623047,130.32000732421875 81.47000122070312,130.1699981689453 80.13999938964844,130.1699981689453 C70.55000305175781,130.1699981689453 62.779998779296875,137.94000244140625 62.779998779296875,147.52999877929688 C62.779998779296875,148.1999969482422 62.81999969482422,148.86000061035156 62.900001525878906,149.5 C62.900001525878906,149.5 -65.4000015258789,149.5 -65.4000015258789,149.5 C-65.31999969482422,148.86000061035156 -65.27999877929688,148.1999969482422 -65.27999877929688,147.52999877929688 C-65.27999877929688,137.94000244140625 -73.05000305175781,130.1699981689453 -82.63999938964844,130.1699981689453 C-83.0999984741211,130.1699981689453 -83.55000305175781,130.19000244140625 -84,130.22999572753906 C-84,130.22999572753906 -84,-128.33999633789062 -84,-128.33999633789062 C-83.55000305175781,-128.3000030517578 -83.0999984741211,-128.27999877929688 -82.63999938964844,-128.27999877929688 C-73.05000305175781,-128.27999877929688 -65.27999877929688,-136.0500030517578 -65.27999877929688,-145.63999938964844 C-65.27999877929688,-146.97000122070312 -65.43000030517578,-148.25999450683594 -65.72000122070312,-149.5 C-65.72000122070312,-149.5 63.220001220703125,-149.5 63.220001220703125,-149.5 C62.93000030517578,-148.25999450683594 62.779998779296875,-146.97000122070312 62.779998779296875,-145.63999938964844 C62.779998779296875,-136.0500030517578 70.55000305175781,-128.27999877929688 80.13999938964844,-128.27999877929688 C81.47000122070312,-128.27999877929688 82.76000213623047,-128.42999267578125 84,-128.72000122070312z"></path></g></g><g opacity="1" transform="matrix(1,0,0,1,858.4810180664062,318.80499267578125)"><g opacity="1" transform="matrix(1,0,0,1,0,0)"><path fill="rgb(14,96,128)" fill-opacity="1" d=" M0,-46.69649887084961 C25.77179718017578,-46.69649887084961 46.69649887084961,-25.77179718017578 46.69649887084961,0 C46.69649887084961,25.77179718017578 25.77179718017578,46.69649887084961 0,46.69649887084961 C-25.77179718017578,46.69649887084961 -46.69649887084961,25.77179718017578 -46.69649887084961,0 C-46.69649887084961,-25.77179718017578 -25.77179718017578,-46.69649887084961 0,-46.69649887084961z"></path></g></g><g opacity="1" transform="matrix(1,0,0,1,858.4810180664062,222.80499267578125)"><g opacity="1" transform="matrix(1,0,0,1,0,0)"><path fill="rgb(14,96,128)" fill-opacity="1" d=" M0,-18.274499893188477 C10.08569622039795,-18.274499893188477 18.274499893188477,-10.08569622039795 18.274499893188477,0 C18.274499893188477,10.08569622039795 10.08569622039795,18.274499893188477 0,18.274499893188477 C-10.08569622039795,18.274499893188477 -18.274499893188477,10.08569622039795 -18.274499893188477,0 C-18.274499893188477,-10.08569622039795 -10.08569622039795,-18.274499893188477 0,-18.274499893188477z"></path></g></g><g opacity="1" transform="matrix(1,0,0,1,858.4810180664062,415.5769958496094)"><g opacity="1" transform="matrix(1,0,0,1,0,0)"><path fill="rgb(14,96,128)" fill-opacity="1" d=" M0,-18.274499893188477 C10.08569622039795,-18.274499893188477 18.274499893188477,-10.08569622039795 18.274499893188477,0 C18.274499893188477,10.08569622039795 10.08569622039795,18.274499893188477 0,18.274499893188477 C-10.08569622039795,18.274499893188477 -18.274499893188477,10.08569622039795 -18.274499893188477,0 C-18.274499893188477,-10.08569622039795 -10.08569622039795,-18.274499893188477 0,-18.274499893188477z"></path></g></g><g opacity="1" transform="matrix(0,-1,1,0,858.47998046875,318.80499267578125)"><g opacity="1" transform="matrix(1,0,0,1,0,0)"><path fill="rgb(7,185,255)" fill-opacity="1" d=" M3.190999984741211,-5.089000225067139 C-3.1470000743865967,-7.710999965667725 -4.216000080108643,-9.08899974822998 -4.216000080108643,-11.185999870300293 C-4.216000080108643,-13.116999626159668 -2.8010001182556152,-15.180000305175781 1.1720000505447388,-15.180000305175781 C5.276000022888184,-15.180000305175781 7.857999801635742,-13.704000473022461 8.961999893188477,-13.074000358581543 C8.961999893188477,-13.074000358581543 10.994999885559082,-11.911999702453613 10.994999885559082,-11.911999702453613 C10.994999885559082,-11.911999702453613 14.164999961853027,-20.2810001373291 14.164999961853027,-20.2810001373291 C14.164999961853027,-20.2810001373291 12.708000183105469,-21.13599967956543 12.708000183105469,-21.13599967956543 C10.310999870300293,-22.541000366210938 7.656000137329102,-23.389999389648438 4.636000156402588,-23.714000701904297 C4.636000156402588,-23.714000701904297 4.636000156402588,-30.610000610351562 4.636000156402588,-30.610000610351562 C4.636000156402588,-30.610000610351562 -3.686000108718872,-30.610000610351562 -3.686000108718872,-30.610000610351562 C-3.686000108718872,-30.610000610351562 -3.686000108718872,-23.191999435424805 -3.686000108718872,-23.191999435424805 C-10.135000228881836,-21.52199935913086 -14.210000038146973,-16.628999710083008 -14.210000038146973,-10.350000381469727 C-14.210000038146973,-2.496999979019165 -7.755000114440918,1.093999981880188 -1.4620000123977661,3.561000108718872 C4.36299991607666,5.922999858856201 5.165999889373779,8.052000045776367 5.165999889373779,10.00100040435791 C5.165999889373779,12.890000343322754 2.63700008392334,14.831999778747559 -1.128000020980835,14.831999778747559 C-4.264999866485596,14.831999778747559 -7.519000053405762,13.862000465393066 -10.055999755859375,12.170999526977539 C-10.055999755859375,12.170999526977539 -12.185999870300293,10.75100040435791 -12.185999870300293,10.75100040435791 C-12.185999870300293,10.75100040435791 -15.229000091552734,19.253999710083008 -15.229000091552734,19.253999710083008 C-15.229000091552734,19.253999710083008 -13.99899959564209,20.131999969482422 -13.99899959564209,20.131999969482422 C-11.602999687194824,21.8439998626709 -7.89900016784668,23.076000213623047 -4.173999786376953,23.452999114990234 C-4.173999786376953,23.452999114990234 -4.173999786376953,30.610000610351562 -4.173999786376953,30.610000610351562 C-4.173999786376953,30.610000610351562 4.2170000076293945,30.610000610351562 4.2170000076293945,30.610000610351562 C4.2170000076293945,30.610000610351562 4.2170000076293945,22.979999542236328 4.2170000076293945,22.979999542236328 C10.871999740600586,21.236000061035156 15.229000091552734,16 15.229000091552734,9.513999938964844 C15.229000091552734,0.921999990940094 8.791000366210938,-2.805999994277954 3.190999984741211,-5.089000225067139z"></path></g></g></g><g transform="matrix(-0.7799999117851257,0,0,-0.7800000905990601,1149.568359375,637.5755615234375)" opacity="1" style="display: block;"><g opacity="1" transform="matrix(1,0,0,1,858.47998046875,318.802001953125)"><g opacity="1" transform="matrix(1,0,0,1,0,0)"><path fill="rgb(7,185,255)" fill-opacity="1" d=" M83.83200073242188,165.5 C83.83200073242188,165.5 -83.83200073242188,165.5 -83.83200073242188,165.5 C-92.76100158691406,165.5 -100,158.26100158691406 -100,149.33200073242188 C-100,149.33200073242188 -100,-149.33200073242188 -100,-149.33200073242188 C-100,-158.26100158691406 -92.76100158691406,-165.5 -83.83200073242188,-165.5 C-83.83200073242188,-165.5 83.83200073242188,-165.5 83.83200073242188,-165.5 C92.76100158691406,-165.5 100,-158.26100158691406 100,-149.33200073242188 C100,-149.33200073242188 100,149.33200073242188 100,149.33200073242188 C100,158.26100158691406 92.76100158691406,165.5 83.83200073242188,165.5z"></path><path stroke-linecap="butt" stroke-linejoin="miter" fill-opacity="0" stroke-miterlimit="10" stroke="rgb(0,0,0)" stroke-opacity="1" stroke-width="5" d=" M83.83200073242188,165.5 C83.83200073242188,165.5 -83.83200073242188,165.5 -83.83200073242188,165.5 C-92.76100158691406,165.5 -100,158.26100158691406 -100,149.33200073242188 C-100,149.33200073242188 -100,-149.33200073242188 -100,-149.33200073242188 C-100,-158.26100158691406 -92.76100158691406,-165.5 -83.83200073242188,-165.5 C-83.83200073242188,-165.5 83.83200073242188,-165.5 83.83200073242188,-165.5 C92.76100158691406,-165.5 100,-158.26100158691406 100,-149.33200073242188 C100,-149.33200073242188 100,149.33200073242188 100,149.33200073242188 C100,158.26100158691406 92.76100158691406,165.5 83.83200073242188,165.5z"></path></g></g><g opacity="1" transform="matrix(1,0,0,1,858.4810180664062,318.80499267578125)"><g opacity="1" transform="matrix(1,0,0,1,0,0)"><path fill="rgb(7,185,255)" fill-opacity="1" d=" M84,-128.72000122070312 C84,-128.72000122070312 84,130.61000061035156 84,130.61000061035156 C82.76000213623047,130.32000732421875 81.47000122070312,130.1699981689453 80.13999938964844,130.1699981689453 C70.55000305175781,130.1699981689453 62.779998779296875,137.94000244140625 62.779998779296875,147.52999877929688 C62.779998779296875,148.1999969482422 62.81999969482422,148.86000061035156 62.900001525878906,149.5 C62.900001525878906,149.5 -65.4000015258789,149.5 -65.4000015258789,149.5 C-65.31999969482422,148.86000061035156 -65.27999877929688,148.1999969482422 -65.27999877929688,147.52999877929688 C-65.27999877929688,137.94000244140625 -73.05000305175781,130.1699981689453 -82.63999938964844,130.1699981689453 C-83.0999984741211,130.1699981689453 -83.55000305175781,130.19000244140625 -84,130.22999572753906 C-84,130.22999572753906 -84,-128.33999633789062 -84,-128.33999633789062 C-83.55000305175781,-128.3000030517578 -83.0999984741211,-128.27999877929688 -82.63999938964844,-128.27999877929688 C-73.05000305175781,-128.27999877929688 -65.27999877929688,-136.0500030517578 -65.27999877929688,-145.63999938964844 C-65.27999877929688,-146.97000122070312 -65.43000030517578,-148.25999450683594 -65.72000122070312,-149.5 C-65.72000122070312,-149.5 63.220001220703125,-149.5 63.220001220703125,-149.5 C62.93000030517578,-148.25999450683594 62.779998779296875,-146.97000122070312 62.779998779296875,-145.63999938964844 C62.779998779296875,-136.0500030517578 70.55000305175781,-128.27999877929688 80.13999938964844,-128.27999877929688 C81.47000122070312,-128.27999877929688 82.76000213623047,-128.42999267578125 84,-128.72000122070312z"></path><path stroke-linecap="round" stroke-linejoin="round" fill-opacity="0" stroke="rgb(0,0,0)" stroke-opacity="1" stroke-width="5" d=" M84,-128.72000122070312 C84,-128.72000122070312 84,130.61000061035156 84,130.61000061035156 C82.76000213623047,130.32000732421875 81.47000122070312,130.1699981689453 80.13999938964844,130.1699981689453 C70.55000305175781,130.1699981689453 62.779998779296875,137.94000244140625 62.779998779296875,147.52999877929688 C62.779998779296875,148.1999969482422 62.81999969482422,148.86000061035156 62.900001525878906,149.5 C62.900001525878906,149.5 -65.4000015258789,149.5 -65.4000015258789,149.5 C-65.31999969482422,148.86000061035156 -65.27999877929688,148.1999969482422 -65.27999877929688,147.52999877929688 C-65.27999877929688,137.94000244140625 -73.05000305175781,130.1699981689453 -82.63999938964844,130.1699981689453 C-83.0999984741211,130.1699981689453 -83.55000305175781,130.19000244140625 -84,130.22999572753906 C-84,130.22999572753906 -84,-128.33999633789062 -84,-128.33999633789062 C-83.55000305175781,-128.3000030517578 -83.0999984741211,-128.27999877929688 -82.63999938964844,-128.27999877929688 C-73.05000305175781,-128.27999877929688 -65.27999877929688,-136.0500030517578 -65.27999877929688,-145.63999938964844 C-65.27999877929688,-146.97000122070312 -65.43000030517578,-148.25999450683594 -65.72000122070312,-149.5 C-65.72000122070312,-149.5 63.220001220703125,-149.5 63.220001220703125,-149.5 C62.93000030517578,-148.25999450683594 62.779998779296875,-146.97000122070312 62.779998779296875,-145.63999938964844 C62.779998779296875,-136.0500030517578 70.55000305175781,-128.27999877929688 80.13999938964844,-128.27999877929688 C81.47000122070312,-128.27999877929688 82.76000213623047,-128.42999267578125 84,-128.72000122070312z"></path></g></g><g opacity="1" transform="matrix(1,0,0,1,858.4810180664062,318.80499267578125)"><g opacity="1" transform="matrix(1,0,0,1,0,0)"><path fill="rgb(14,96,128)" fill-opacity="1" d=" M0,-46.69649887084961 C25.77179718017578,-46.69649887084961 46.69649887084961,-25.77179718017578 46.69649887084961,0 C46.69649887084961,25.77179718017578 25.77179718017578,46.69649887084961 0,46.69649887084961 C-25.77179718017578,46.69649887084961 -46.69649887084961,25.77179718017578 -46.69649887084961,0 C-46.69649887084961,-25.77179718017578 -25.77179718017578,-46.69649887084961 0,-46.69649887084961z"></path></g></g><g opacity="1" transform="matrix(1,0,0,1,858.4810180664062,222.80499267578125)"><g opacity="1" transform="matrix(1,0,0,1,0,0)"><path fill="rgb(14,96,128)" fill-opacity="1" d=" M0,-18.274499893188477 C10.08569622039795,-18.274499893188477 18.274499893188477,-10.08569622039795 18.274499893188477,0 C18.274499893188477,10.08569622039795 10.08569622039795,18.274499893188477 0,18.274499893188477 C-10.08569622039795,18.274499893188477 -18.274499893188477,10.08569622039795 -18.274499893188477,0 C-18.274499893188477,-10.08569622039795 -10.08569622039795,-18.274499893188477 0,-18.274499893188477z"></path></g></g><g opacity="1" transform="matrix(1,0,0,1,858.4810180664062,415.5769958496094)"><g opacity="1" transform="matrix(1,0,0,1,0,0)"><path fill="rgb(14,96,128)" fill-opacity="1" d=" M0,-18.274499893188477 C10.08569622039795,-18.274499893188477 18.274499893188477,-10.08569622039795 18.274499893188477,0 C18.274499893188477,10.08569622039795 10.08569622039795,18.274499893188477 0,18.274499893188477 C-10.08569622039795,18.274499893188477 -18.274499893188477,10.08569622039795 -18.274499893188477,0 C-18.274499893188477,-10.08569622039795 -10.08569622039795,-18.274499893188477 0,-18.274499893188477z"></path></g></g><g opacity="1" transform="matrix(0,-1,1,0,858.47998046875,318.80499267578125)"><g opacity="1" transform="matrix(1,0,0,1,0,0)"><path fill="rgb(7,185,255)" fill-opacity="1" d=" M3.190999984741211,-5.089000225067139 C-3.1470000743865967,-7.710999965667725 -4.216000080108643,-9.08899974822998 -4.216000080108643,-11.185999870300293 C-4.216000080108643,-13.116999626159668 -2.8010001182556152,-15.180000305175781 1.1720000505447388,-15.180000305175781 C5.276000022888184,-15.180000305175781 7.857999801635742,-13.704000473022461 8.961999893188477,-13.074000358581543 C8.961999893188477,-13.074000358581543 10.994999885559082,-11.911999702453613 10.994999885559082,-11.911999702453613 C10.994999885559082,-11.911999702453613 14.164999961853027,-20.2810001373291 14.164999961853027,-20.2810001373291 C14.164999961853027,-20.2810001373291 12.708000183105469,-21.13599967956543 12.708000183105469,-21.13599967956543 C10.310999870300293,-22.541000366210938 7.656000137329102,-23.389999389648438 4.636000156402588,-23.714000701904297 C4.636000156402588,-23.714000701904297 4.636000156402588,-30.610000610351562 4.636000156402588,-30.610000610351562 C4.636000156402588,-30.610000610351562 -3.686000108718872,-30.610000610351562 -3.686000108718872,-30.610000610351562 C-3.686000108718872,-30.610000610351562 -3.686000108718872,-23.191999435424805 -3.686000108718872,-23.191999435424805 C-10.135000228881836,-21.52199935913086 -14.210000038146973,-16.628999710083008 -14.210000038146973,-10.350000381469727 C-14.210000038146973,-2.496999979019165 -7.755000114440918,1.093999981880188 -1.4620000123977661,3.561000108718872 C4.36299991607666,5.922999858856201 5.165999889373779,8.052000045776367 5.165999889373779,10.00100040435791 C5.165999889373779,12.890000343322754 2.63700008392334,14.831999778747559 -1.128000020980835,14.831999778747559 C-4.264999866485596,14.831999778747559 -7.519000053405762,13.862000465393066 -10.055999755859375,12.170999526977539 C-10.055999755859375,12.170999526977539 -12.185999870300293,10.75100040435791 -12.185999870300293,10.75100040435791 C-12.185999870300293,10.75100040435791 -15.229000091552734,19.253999710083008 -15.229000091552734,19.253999710083008 C-15.229000091552734,19.253999710083008 -13.99899959564209,20.131999969482422 -13.99899959564209,20.131999969482422 C-11.602999687194824,21.8439998626709 -7.89900016784668,23.076000213623047 -4.173999786376953,23.452999114990234 C-4.173999786376953,23.452999114990234 -4.173999786376953,30.610000610351562 -4.173999786376953,30.610000610351562 C-4.173999786376953,30.610000610351562 4.2170000076293945,30.610000610351562 4.2170000076293945,30.610000610351562 C4.2170000076293945,30.610000610351562 4.2170000076293945,22.979999542236328 4.2170000076293945,22.979999542236328 C10.871999740600586,21.236000061035156 15.229000091552734,16 15.229000091552734,9.513999938964844 C15.229000091552734,0.921999990940094 8.791000366210938,-2.805999994277954 3.190999984741211,-5.089000225067139z"></path></g></g></g><g transform="matrix(0.9999999403953552,0,0,1.0000001192092896,276.7829895019531,-15.95209789276123)" opacity="1" style="display: block;"><g opacity="1" transform="matrix(1,0,0,1,263.2170104980469,575.9520263671875)"><g opacity="1" transform="matrix(1,0,0,1,0,0)"><path fill="rgb(47,136,172)" fill-opacity="1" d=" M170.55299377441406,151.1490020751953 C170.55299377441406,151.1490020751953 -170.55299377441406,151.1490020751953 -170.55299377441406,151.1490020751953 C-183.80799865722656,151.1490020751953 -194.55299377441406,140.4040069580078 -194.55299377441406,127.14900207519531 C-194.55299377441406,127.14900207519531 -194.55299377441406,-127.14900207519531 -194.55299377441406,-127.14900207519531 C-194.55299377441406,-140.4040069580078 -183.80799865722656,-151.1490020751953 -170.55299377441406,-151.1490020751953 C-170.55299377441406,-151.1490020751953 170.55299377441406,-151.1490020751953 170.55299377441406,-151.1490020751953 C183.80799865722656,-151.1490020751953 194.55299377441406,-140.4040069580078 194.55299377441406,-127.14900207519531 C194.55299377441406,-127.14900207519531 194.55299377441406,127.14900207519531 194.55299377441406,127.14900207519531 C194.55299377441406,140.4040069580078 183.80799865722656,151.1490020751953 170.55299377441406,151.1490020751953z"></path></g></g><g opacity="1" transform="matrix(1,0,0,1,263.2170104980469,575.9520263671875)"><g opacity="1" transform="matrix(1,0,0,1,0,0)"><path fill="rgb(32,172,227)" fill-opacity="1" d=" M-75.83000183105469,151.1490020751953 C-75.83000183105469,151.1490020751953 -162.63800048828125,151.1490020751953 -162.63800048828125,151.1490020751953 C-180.26400756835938,151.1490020751953 -194.55299377441406,136.86000061035156 -194.55299377441406,119.23400115966797 C-194.55299377441406,119.23400115966797 -194.55299377441406,-119.23400115966797 -194.55299377441406,-119.23400115966797 C-194.55299377441406,-136.86000061035156 -180.26400756835938,-151.1490020751953 -162.63800048828125,-151.1490020751953 C-162.63800048828125,-151.1490020751953 162.63800048828125,-151.1490020751953 162.63800048828125,-151.1490020751953 C180.26400756835938,-151.1490020751953 194.55299377441406,-136.86000061035156 194.55299377441406,-119.23400115966797 C194.55299377441406,-119.23400115966797 194.55299377441406,-119.23400115966797 194.55299377441406,-119.23400115966797 C194.55299377441406,30.0939998626709 73.49800109863281,151.1490020751953 -75.83000183105469,151.1490020751953z"></path></g></g><g opacity="1" transform="matrix(1,0,0,1,263.2170104980469,575.9520263671875)"><g opacity="1" transform="matrix(1,0,0,1,0,0)"><path stroke-linecap="round" stroke-linejoin="round" fill-opacity="0" stroke-dasharray=" 12" stroke-dashoffset="0" stroke="rgb(11,50,65)" stroke-opacity="1" stroke-width="2" d=" M-170.55299377441406,141.1490020751953 C-178.2729949951172,141.1490020751953 -184.55299377441406,134.86900329589844 -184.55299377441406,127.14900207519531 C-184.55299377441406,127.14900207519531 -184.55299377441406,-127.14900207519531 -184.55299377441406,-127.14900207519531 C-184.55299377441406,-134.86900329589844 -178.2729949951172,-141.1490020751953 -170.55299377441406,-141.1490020751953 C-170.55299377441406,-141.1490020751953 170.55299377441406,-141.1490020751953 170.55299377441406,-141.1490020751953 C178.2729949951172,-141.1490020751953 184.55299377441406,-134.86900329589844 184.55299377441406,-127.14900207519531 C184.55299377441406,-127.14900207519531 184.55299377441406,127.14900207519531 184.55299377441406,127.14900207519531 C184.55299377441406,134.86900329589844 178.2729949951172,141.1490020751953 170.55299377441406,141.1490020751953 C170.55299377441406,141.1490020751953 -170.55299377441406,141.1490020751953 -170.55299377441406,141.1490020751953z"></path></g></g><g opacity="1" transform="matrix(1,0,0,1,385.84100341796875,671.7050170898438)"><g opacity="1" transform="matrix(1,0,0,1,0,0)"><path fill="rgb(39,161,209)" fill-opacity="1" d=" M4.666999816894531,2.694000005722046 C4.666999816894531,2.694000005722046 4.666999816894531,-2.694000005722046 4.666999816894531,-2.694000005722046 C4.666999816894531,-2.694000005722046 0,-5.388999938964844 0,-5.388999938964844 C0,-5.388999938964844 -4.666999816894531,-2.694000005722046 -4.666999816894531,-2.694000005722046 C-4.666999816894531,-2.694000005722046 -4.666999816894531,2.694000005722046 -4.666999816894531,2.694000005722046 C-4.666999816894531,2.694000005722046 0,5.388999938964844 0,5.388999938964844 C0,5.388999938964844 4.666999816894531,2.694000005722046 4.666999816894531,2.694000005722046z"></path></g></g><g opacity="1" transform="matrix(1,0,0,1,314.45098876953125,635.2789916992188)"><g opacity="1" transform="matrix(1,0,0,1,0,0)"><path fill="rgb(39,161,209)" fill-opacity="1" d=" M10.9399995803833,6.315999984741211 C10.9399995803833,6.315999984741211 10.9399995803833,-6.315999984741211 10.9399995803833,-6.315999984741211 C10.9399995803833,-6.315999984741211 0,-12.631999969482422 0,-12.631999969482422 C0,-12.631999969482422 -10.9399995803833,-6.315999984741211 -10.9399995803833,-6.315999984741211 C-10.9399995803833,-6.315999984741211 -10.9399995803833,6.315999984741211 -10.9399995803833,6.315999984741211 C-10.9399995803833,6.315999984741211 0,12.631999969482422 0,12.631999969482422 C0,12.631999969482422 10.9399995803833,6.315999984741211 10.9399995803833,6.315999984741211z"></path></g></g><g opacity="1" transform="matrix(1,0,0,1,387.302001953125,635.2789916992188)"><g opacity="1" transform="matrix(1,0,0,1,0,0)"><path fill="rgb(47,136,172)" fill-opacity="1" d=" M2.2990000247955322,-8.418000221252441 C2.2990000247955322,-8.418000221252441 -2.2990000247955322,-8.418000221252441 -2.2990000247955322,-8.418000221252441 C-3.884000062942505,-8.418000221252441 -5.348999977111816,-7.572999954223633 -6.140999794006348,-6.199999809265137 C-6.140999794006348,-6.199999809265137 -8.439000129699707,-2.2179999351501465 -8.439000129699707,-2.2179999351501465 C-9.230999946594238,-0.8450000286102295 -9.230999946594238,0.8450000286102295 -8.439000129699707,2.2179999351501465 C-8.439000129699707,2.2179999351501465 -6.140999794006348,6.199999809265137 -6.140999794006348,6.199999809265137 C-5.348999977111816,7.572999954223633 -3.884000062942505,8.418000221252441 -2.2990000247955322,8.418000221252441 C-2.2990000247955322,8.418000221252441 2.2990000247955322,8.418000221252441 2.2990000247955322,8.418000221252441 C3.884000062942505,8.418000221252441 5.348999977111816,7.572999954223633 6.140999794006348,6.199999809265137 C6.140999794006348,6.199999809265137 8.439000129699707,2.2179999351501465 8.439000129699707,2.2179999351501465 C9.230999946594238,0.8450000286102295 9.230999946594238,-0.8450000286102295 8.439000129699707,-2.2179999351501465 C8.439000129699707,-2.2179999351501465 6.140999794006348,-6.199999809265137 6.140999794006348,-6.199999809265137 C5.348999977111816,-7.572999954223633 3.884000062942505,-8.418000221252441 2.2990000247955322,-8.418000221252441z"></path></g></g><g opacity="1" transform="matrix(1,0,0,1,369.2349853515625,660.8109741210938)"><g opacity="1" transform="matrix(1,0,0,1,0,0)"><path fill="rgb(47,136,172)" fill-opacity="1" d=" M2.2990000247955322,-8.418000221252441 C2.2990000247955322,-8.418000221252441 -2.2990000247955322,-8.418000221252441 -2.2990000247955322,-8.418000221252441 C-3.884000062942505,-8.418000221252441 -5.348999977111816,-7.572999954223633 -6.140999794006348,-6.199999809265137 C-6.140999794006348,-6.199999809265137 -8.439000129699707,-2.2179999351501465 -8.439000129699707,-2.2179999351501465 C-9.230999946594238,-0.8450000286102295 -9.230999946594238,0.8450000286102295 -8.439000129699707,2.2179999351501465 C-8.439000129699707,2.2179999351501465 -6.140999794006348,6.199999809265137 -6.140999794006348,6.199999809265137 C-5.348999977111816,7.572999954223633 -3.884000062942505,8.418000221252441 -2.2990000247955322,8.418000221252441 C-2.2990000247955322,8.418000221252441 2.2990000247955322,8.418000221252441 2.2990000247955322,8.418000221252441 C3.884000062942505,8.418000221252441 5.348999977111816,7.572999954223633 6.140999794006348,6.199999809265137 C6.140999794006348,6.199999809265137 8.439000129699707,2.2179999351501465 8.439000129699707,2.2179999351501465 C9.230999946594238,0.8450000286102295 9.230999946594238,-0.8450000286102295 8.439000129699707,-2.2179999351501465 C8.439000129699707,-2.2179999351501465 6.140999794006348,-6.199999809265137 6.140999794006348,-6.199999809265137 C5.348999977111816,-7.572999954223633 3.884000062942505,-8.418000221252441 2.2990000247955322,-8.418000221252441z"></path></g></g><g opacity="1" transform="matrix(1,0,0,1,145.92999267578125,523.1859741210938)"><g opacity="1" transform="matrix(1,0,0,1,0,0)"><path fill="rgb(105,206,246)" fill-opacity="1" d=" M8.605999946594238,45.266998291015625 C8.605999946594238,45.266998291015625 -8.605999946594238,45.266998291015625 -8.605999946594238,45.266998291015625 C-16.261999130249023,45.266998291015625 -22.468000411987305,39.060001373291016 -22.468000411987305,31.40399932861328 C-22.468000411987305,31.40399932861328 -22.468000411987305,-31.40399932861328 -22.468000411987305,-31.40399932861328 C-22.468000411987305,-39.060001373291016 -16.261999130249023,-45.266998291015625 -8.605999946594238,-45.266998291015625 C-8.605999946594238,-45.266998291015625 8.605999946594238,-45.266998291015625 8.605999946594238,-45.266998291015625 C16.261999130249023,-45.266998291015625 22.468000411987305,-39.060001373291016 22.468000411987305,-31.40399932861328 C22.468000411987305,-31.40399932861328 22.468000411987305,31.40399932861328 22.468000411987305,31.40399932861328 C22.468000411987305,39.060001373291016 16.261999130249023,45.266998291015625 8.605999946594238,45.266998291015625z"></path></g></g><g opacity="1" transform="matrix(1,0,0,1,218.281005859375,648.4630126953125)"><g opacity="1" transform="matrix(1,0,0,1,0,0)"><path fill="rgb(105,206,246)" fill-opacity="1" d=" M-17.69300079345703,48.744998931884766 C-17.69300079345703,48.744998931884766 -48.744998931884766,17.69300079345703 -48.744998931884766,17.69300079345703 C-48.744998931884766,17.69300079345703 17.69300079345703,-48.744998931884766 17.69300079345703,-48.744998931884766 C17.69300079345703,-48.744998931884766 48.744998931884766,-17.69300079345703 48.744998931884766,-17.69300079345703 C48.744998931884766,-17.69300079345703 -17.69300079345703,48.744998931884766 -17.69300079345703,48.744998931884766z"></path></g></g><g opacity="1" transform="matrix(1,0,0,1,303.510986328125,563.2329711914062)"><g opacity="1" transform="matrix(1,0,0,1,0,0)"><path fill="rgb(105,206,246)" fill-opacity="1" d=" M-17.69300079345703,48.744998931884766 C-17.69300079345703,48.744998931884766 -48.744998931884766,17.69300079345703 -48.744998931884766,17.69300079345703 C-48.744998931884766,17.69300079345703 17.69300079345703,-48.744998931884766 17.69300079345703,-48.744998931884766 C17.69300079345703,-48.744998931884766 48.744998931884766,-17.69300079345703 48.744998931884766,-17.69300079345703 C48.744998931884766,-17.69300079345703 -17.69300079345703,48.744998931884766 -17.69300079345703,48.744998931884766z"></path></g></g><g opacity="1" transform="matrix(1.7599999904632568,0,0,1.7599999904632568,387.302001953125,479.9519958496094)"><g opacity="1" transform="matrix(1,0,0,1,0,0)"><path fill="rgb(6,88,121)" fill-opacity="1" d=" M0,-13.277000427246094 C0,-13.277000427246094 4.693999767303467,-4.693999767303467 4.693999767303467,-4.693999767303467 C4.693999767303467,-4.693999767303467 13.277000427246094,0 13.277000427246094,0 C13.277000427246094,0 4.693999767303467,4.693999767303467 4.693999767303467,4.693999767303467 C4.693999767303467,4.693999767303467 0,13.277000427246094 0,13.277000427246094 C0,13.277000427246094 -4.693999767303467,4.693999767303467 -4.693999767303467,4.693999767303467 C-4.693999767303467,4.693999767303467 -13.277000427246094,0 -13.277000427246094,0 C-13.277000427246094,0 -4.693999767303467,-4.693999767303467 -4.693999767303467,-4.693999767303467 C-4.693999767303467,-4.693999767303467 0,-13.277000427246094 0,-13.277000427246094z"></path></g></g><g opacity="1" transform="matrix(1.7599999904632568,0,0,1.7599999904632568,387.302001953125,479.9519958496094)"><g opacity="1" transform="matrix(1,0,0,1,0,0)"><path fill="rgb(105,206,246)" fill-opacity="1" d=" M0,-4.42549991607666 C2.4424333572387695,-4.42549991607666 4.42549991607666,-2.4424333572387695 4.42549991607666,0 C4.42549991607666,2.4424333572387695 2.4424333572387695,4.42549991607666 0,4.42549991607666 C-2.4424333572387695,4.42549991607666 -4.42549991607666,2.4424333572387695 -4.42549991607666,0 C-4.42549991607666,-2.4424333572387695 -2.4424333572387695,-4.42549991607666 0,-4.42549991607666z"></path></g></g></g></g></svg>