<svg xmlns="http://www.w3.org/2000/svg" xmlns:xlink="http://www.w3.org/1999/xlink" viewBox="0 0 1080 1080" width="1080" height="1080" preserveAspectRatio="xMidYMid meet" style="width: 100%; height: 100%; transform: translate3d(0px, 0px, 0px); content-visibility: visible;"><defs><clipPath id="__lottie_element_1751"><rect width="1080" height="1080" x="0" y="0"></rect></clipPath></defs><g clip-path="url(#__lottie_element_1751)"><g transform="matrix(0.9965576529502869,-0.08290228992700577,0.08290228992700577,0.9965576529502869,1314.305908203125,249.12315368652344)" opacity="1" style="display: block;"><g opacity="1" transform="matrix(5,0,0,5,0,0)"><path fill="rgb(7,185,255)" fill-opacity="1" d=" M-136.6300048828125,31.714000701904297 C-141.9340057373047,31.714000701904297 -147.2050018310547,30.40999984741211 -152.44400024414062,27.801000595092773 C-157.68299865722656,25.191999435424805 -162.38900756835938,21.802000045776367 -166.56300354003906,17.628000259399414 C-170.73699951171875,13.454000473022461 -174.1269989013672,8.748000144958496 -176.73599243164062,3.509000062942505 C-179.34500122070312,-1.7300000190734863 -180.6490020751953,-7.000999927520752 -180.6490020751953,-12.305000305175781 C-180.6490020751953,-13.130999565124512 -180.36599731445312,-13.82699966430664 -179.80099487304688,-14.392000198364258 C-179.23599243164062,-14.956999778747559 -178.5399932861328,-15.239999771118164 -177.71400451660156,-15.239999771118164 C-177.71400451660156,-15.239999771118164 -168.5850067138672,-15.239999771118164 -168.5850067138672,-15.239999771118164 C-167.9759979248047,-15.239999771118164 -167.4429931640625,-15.032999992370605 -166.98699951171875,-14.619999885559082 C-166.531005859375,-14.206999778747559 -166.23599243164062,-13.654000282287598 -166.1060028076172,-12.958000183105469 C-166.1060028076172,-12.958000183105469 -164.3459930419922,-4.741000175476074 -164.3459930419922,-4.741000175476074 C-164.25900268554688,-4.131999969482422 -164.2689971923828,-3.578000068664551 -164.3780059814453,-3.078000068664551 C-164.48699951171875,-2.578000068664551 -164.71499633789062,-2.1540000438690186 -165.06300354003906,-1.805999994277954 C-165.06300354003906,-1.805999994277954 -171.58399963378906,4.781000137329102 -171.58399963378906,4.781000137329102 C-169.1490020751953,8.824000358581543 -166.4219970703125,12.345000267028809 -163.39999389648438,15.345000267028809 C-160.3780059814453,18.344999313354492 -156.9550018310547,20.88800048828125 -153.12899780273438,22.975000381469727 C-153.12899780273438,22.975000381469727 -146.93299865722656,16.583999633789062 -146.93299865722656,16.583999633789062 C-146.4980010986328,16.106000900268555 -145.99899291992188,15.770000457763672 -145.4340057373047,15.574000358581543 C-144.86900329589844,15.378000259399414 -144.30299377441406,15.345999717712402 -143.73800659179688,15.47599983215332 C-143.73800659179688,15.47599983215332 -135.97799682617188,17.17099952697754 -135.97799682617188,17.17099952697754 C-135.3260040283203,17.301000595092773 -134.78199768066406,17.628000259399414 -134.3470001220703,18.149999618530273 C-133.91200256347656,18.672000885009766 -133.69500732421875,19.280000686645508 -133.69500732421875,19.97599983215332 C-133.69500732421875,19.97599983215332 -133.69500732421875,28.77899932861328 -133.69500732421875,28.77899932861328 C-133.69500732421875,29.604999542236328 -133.97799682617188,30.301000595092773 -134.54299926757812,30.865999221801758 C-135.10800170898438,31.430999755859375 -135.8040008544922,31.714000701904297 -136.6300048828125,31.714000701904297z M-173.54100036621094,1.194000005722046 C-173.54100036621094,1.194000005722046 -168.25799560546875,-4.1539998054504395 -168.25799560546875,-4.1539998054504395 C-168.25799560546875,-4.1539998054504395 -169.75799560546875,-11.32699966430664 -169.75799560546875,-11.32699966430664 C-169.75799560546875,-11.32699966430664 -176.73599243164062,-11.32699966430664 -176.73599243164062,-11.32699966430664 C-176.73599243164062,-9.630999565124512 -176.4759979248047,-7.7729997634887695 -175.95399475097656,-5.750999927520752 C-175.4320068359375,-3.7290000915527344 -174.6280059814453,-1.4149999618530273 -173.54100036621094,1.194000005722046z M-149.4770050048828,24.867000579833984 C-147.69400024414062,25.69300079345703 -145.75999450683594,26.365999221801758 -143.67300415039062,26.88800048828125 C-141.58599853515625,27.40999984741211 -139.56399536132812,27.714000701904297 -137.60800170898438,27.801000595092773 C-137.60800170898438,27.801000595092773 -137.60800170898438,20.822999954223633 -137.60800170898438,20.822999954223633 C-137.60800170898438,20.822999954223633 -144.3249969482422,19.45400047302246 -144.3249969482422,19.45400047302246 C-144.3249969482422,19.45400047302246 -149.4770050048828,24.867000579833984 -149.4770050048828,24.867000579833984z"></path></g></g><g transform="matrix(1,0,0,1,1324.554931640625,316.81500244140625)" opacity="1" style="display: block;"><g opacity="1" transform="matrix(5,0,0,5,0,0)"><path fill="rgb(7,185,255)" fill-opacity="1" d=" M-135.72,-5.68 C-136.46,-5.68 -137.09,-5.93 -137.61,-6.43 C-138.13,-6.93 -138.39,-7.55 -138.39,-8.29 C-138.39,-9.03 -138.13,-9.65 -137.61,-10.15 C-137.09,-10.65 -136.46,-10.9 -135.72,-10.9 C-134.98,-10.9 -134.37,-10.65 -133.89,-10.15 C-133.41,-9.65 -133.17,-9.03 -133.17,-8.29 C-133.17,-7.55 -133.41,-6.93 -133.89,-6.43 C-134.37,-5.93 -134.98,-5.68 -135.72,-5.68z M-147.25999450683594,5.302000045776367 C-147.99899291992188,5.302000045776367 -148.60800170898438,5.052000045776367 -149.08599853515625,4.552000045776367 C-149.56399536132812,4.052000045776367 -149.80299377441406,3.433000087738037 -149.80299377441406,2.694000005722046 C-149.80299377441406,1.9550000429153442 -149.56399536132812,1.3350000381469727 -149.08599853515625,0.8349999785423279 C-148.60800170898438,0.33500000834465027 -147.99899291992188,0.08500000089406967 -147.25999450683594,0.08500000089406967 C-146.52099609375,0.08500000089406967 -145.88999938964844,0.33500000834465027 -145.3679962158203,0.8349999785423279 C-144.8459930419922,1.3350000381469727 -144.58599853515625,1.9550000429153442 -144.58599853515625,2.694000005722046 C-144.58599853515625,3.433000087738037 -144.8459930419922,4.052000045776367 -145.3679962158203,4.552000045776367 C-145.88999938964844,5.052000045776367 -146.52099609375,5.302000045776367 -147.25999450683594,5.302000045776367z M-158.54200744628906,5.302000045776367 C-159.281005859375,5.302000045776367 -159.89999389648438,5.052000045776367 -160.39999389648438,4.552000045776367 C-160.89999389648438,4.052000045776367 -161.14999389648438,3.433000087738037 -161.14999389648438,2.694000005722046 C-161.14999389648438,1.9550000429153442 -160.89999389648438,1.3350000381469727 -160.39999389648438,0.8349999785423279 C-159.89999389648438,0.33500000834465027 -159.281005859375,0.08500000089406967 -158.54200744628906,0.08500000089406967 C-157.80299377441406,0.08500000089406967 -157.18299865722656,0.33500000834465027 -156.68299865722656,0.8349999785423279 C-156.18299865722656,1.3350000381469727 -155.93299865722656,1.9550000429153442 -155.93299865722656,2.694000005722046 C-155.93299865722656,3.433000087738037 -156.18299865722656,4.052000045776367 -156.68299865722656,4.552000045776367 C-157.18299865722656,5.052000045776367 -157.80299377441406,5.302000045776367 -158.54200744628906,5.302000045776367z"></path><g opacity="1" transform="matrix(1,0,0,1,0,-10.985465049743652)"></g><g opacity="1" transform="matrix(1,0,0,1,0,0)"></g><g opacity="1" transform="matrix(1,0,0,1,0,0)"></g></g></g><g transform="matrix(1,0,0,1,540,600)" opacity="1" style="display: block;"><g opacity="1" transform="matrix(5,0,0,5,0,0)"><path fill="rgb(7,185,255)" fill-opacity="1" d=" M-7.760000228881836,-15.756999969482422 C-7.760000228881836,-15.756999969482422 14.869000434875488,-5.818999767303467 14.869000434875488,-5.818999767303467 C16.357999801635742,-5.142000198364258 17.5310001373291,-4.131999969482422 18.3700008392334,-2.937000036239624 C19.673999786376953,-1.0789999961853027 20.180999755859375,1.2280000448226929 19.84000015258789,3.421999931335449 C19.503999710083008,5.624000072479248 18.325000762939453,7.7230000495910645 16.246000289916992,9.182000160217285 C13.725000381469727,10.951000213623047 10.456000328063965,11.253999710083008 7.658999919891357,9.967000007629395 C7.658999919891357,9.967000007629395 2.7929999828338623,7.750999927520752 2.7929999828338623,7.750999927520752 C2.7929999828338623,7.750999927520752 -3.6760001182556152,4.801000118255615 -3.6760001182556152,4.801000118255615 C-3.6760001182556152,4.801000118255615 -13.312000274658203,0.22699999809265137 -13.312000274658203,0.22699999809265137 C-13.312000274658203,0.22699999809265137 -16.29199981689453,2.318000078201294 -16.29199981689453,2.318000078201294 C-16.291000366210938,2.3269999027252197 -16.291000366210938,2.3259999752044678 -16.290000915527344,2.3350000381469727 C-16.290000915527344,2.3350000381469727 1.5399999618530273,10.473999977111816 1.5399999618530273,10.473999977111816 C1.5399999618530273,10.473999977111816 3.1019999980926514,11.185999870300293 3.1019999980926514,11.185999870300293 C3.1019999980926514,11.185999870300293 6.4120001792907715,12.699000358581543 6.4120001792907715,12.699000358581543 C10.168000221252441,14.411999702453613 14.597999572753906,14.003999710083008 17.969999313354492,11.63700008392334 C22.586999893188477,8.397000312805176 24.148000717163086,2.390000104904175 21.983999252319336,-2.5910000801086426 C21.983999252319336,-2.5910000801086426 47.249000549316406,-20.590999603271484 47.249000549316406,-20.590999603271484 C51.176998138427734,-23.384000778198242 56.625,-22.444000244140625 59.37799835205078,-18.48699951171875 C62.09600067138672,-14.579000473022461 61.15700149536133,-9.217000007629395 57.27199935913086,-6.466000080108643 C57.27199935913086,-6.466000080108643 52.012001037597656,-2.75 52.012001037597656,-2.75 C52.012001037597656,-2.75 40.202999114990234,5.734000205993652 40.202999114990234,5.734000205993652 C40.202999114990234,5.734000205993652 34.505001068115234,9.817999839782715 34.505001068115234,9.817999839782715 C34.505001068115234,9.817999839782715 34.48099899291992,9.835000038146973 34.48099899291992,9.835000038146973 C34.48099899291992,9.835000038146973 29.93899917602539,13.095999717712402 29.93899917602539,13.095999717712402 C29.6200008392334,13.319999694824219 29.29800033569336,13.520999908447266 28.972000122070312,13.701000213623047 C28.972000122070312,13.701000213623047 15.178000450134277,23.381999969482422 15.178000450134277,23.381999969482422 C12.27400016784668,25.420000076293945 8.505999565124512,25.76799964904785 5.2789998054504395,24.29400062561035 C5.2789998054504395,24.29400062561035 -20.757999420166016,12.404000282287598 -20.757999420166016,12.404000282287598 C-20.757999420166016,12.404000282287598 -26.760000228881836,9.664999961853027 -26.760000228881836,9.664999961853027 C-26.760000228881836,9.664999961853027 -30.14299964904785,8.118000030517578 -30.14299964904785,8.118000030517578 C-30.14299964904785,8.118000030517578 -35.792999267578125,5.533999919891357 -35.792999267578125,5.533999919891357 C-35.792999267578125,5.533999919891357 -45.96099853515625,12.670000076293945 -45.96099853515625,12.670000076293945 C-47.05400085449219,13.437000274658203 -48.56100082397461,13.17300033569336 -49.327999114990234,12.079999923706055 C-49.327999114990234,12.079999923706055 -52.67300033569336,7.315000057220459 -52.67300033569336,7.315000057220459 C-52.67300033569336,7.315000057220459 -60.49300003051758,-3.828000068664551 -60.49300003051758,-3.828000068664551 C-61.2599983215332,-4.921000003814697 -60.99599838256836,-6.427999973297119 -59.90299987792969,-7.195000171661377 C-59.90299987792969,-7.195000171661377 -36.76900100708008,-23.430999755859375 -36.76900100708008,-23.430999755859375 C-36.76900100708008,-23.430999755859375 -36.76900100708008,-23.430999755859375 -36.76900100708008,-23.430999755859375 C-33.99300003051758,-25.378999710083008 -30.40399932861328,-25.742000579833984 -27.29400062561035,-24.38800048828125 C-27.29400062561035,-24.38800048828125 -12.897000312805176,-18.121000289916992 -12.897000312805176,-18.121000289916992 C-12.897000312805176,-18.121000289916992 -7.760000228881836,-15.756999969482422 -7.760000228881836,-15.756999969482422z"></path></g></g></g></svg>