<svg xmlns="http://www.w3.org/2000/svg" xmlns:xlink="http://www.w3.org/1999/xlink" viewBox="0 0 1080 1080" width="1080" height="1080" preserveAspectRatio="xMidYMid meet" style="width: 100%; height: 100%; transform: translate3d(0px, 0px, 0px); content-visibility: visible;"><defs><clipPath id="__lottie_element_9414"><rect width="1080" height="1080" x="0" y="0"></rect></clipPath></defs><g clip-path="url(#__lottie_element_9414)"><g transform="matrix(1,0,0,1,197.17800903320312,59.123992919921875)" opacity="1" style="display: block;"><g opacity="1" transform="matrix(1,0,0,1,294.8739929199219,751.3259887695312)"><path stroke-linecap="round" stroke-linejoin="round" fill-opacity="0" stroke="rgb(0,0,0)" stroke-opacity="1" stroke-width="30" d=" M55.26100158691406,59.8650016784668 C55.26100158691406,59.8650016784668 -55.2599983215332,-59.8650016784668 -55.2599983215332,-59.8650016784668"></path></g><g opacity="1" transform="matrix(1,0,0,1,251.34500122070312,381.5610046386719)"><path stroke-linecap="round" stroke-linejoin="round" fill-opacity="0" stroke="rgb(7,185,255)" stroke-opacity="1" stroke-width="30" d=" M176.34500122070312,160.33599853515625 C176.34500122070312,160.33599853515625 176.34500122070312,251.4040069580078 176.34500122070312,251.4040069580078 C176.34500122070312,281.8609924316406 151.64599609375,306.5610046386719 121.1780014038086,306.5610046386719 C121.1780014038086,306.5610046386719 -121.1780014038086,306.5610046386719 -121.1780014038086,306.5610046386719 C-151.64599609375,306.5610046386719 -176.34500122070312,281.8609924316406 -176.34500122070312,251.4040069580078 C-176.34500122070312,251.4040069580078 -176.34500122070312,-251.3939971923828 -176.34500122070312,-251.3939971923828 C-176.34500122070312,-281.86199951171875 -151.64599609375,-306.5610046386719 -121.1780014038086,-306.5610046386719 C-121.1780014038086,-306.5610046386719 121.1780014038086,-306.5610046386719 121.1780014038086,-306.5610046386719 C151.64599609375,-306.5610046386719 176.34500122070312,-281.86199951171875 176.34500122070312,-251.3939971923828 C176.34500122070312,-251.3939971923828 176.34500122070312,24.319000244140625 176.34500122070312,24.319000244140625"></path></g><g opacity="1" transform="matrix(1,0,0,1,0,0)"><path stroke-linecap="round" stroke-linejoin="round" fill-opacity="0" stroke="rgb(7,185,255)" stroke-opacity="1" stroke-width="30" d=" M294.2170104980469,631.0419921875 C294.2170104980469,631.0419921875 208.47900390625,631.0419921875 208.47900390625,631.0419921875"></path></g><g opacity="1" transform="matrix(1,0,0,1,251.3470001220703,103.15299987792969)"><path stroke-linecap="round" stroke-linejoin="round" fill-opacity="0" stroke="rgb(7,185,255)" stroke-opacity="1" stroke-width="30" d=" M69.7490005493164,-28.152999877929688 C69.7490005493164,-28.152999877929688 69.7490005493164,-15.23900032043457 69.7490005493164,-15.23900032043457 C69.7490005493164,8.725000381469727 50.32099914550781,28.152999877929688 26.35700035095215,28.152999877929688 C26.35700035095215,28.152999877929688 -26.357999801635742,28.152999877929688 -26.357999801635742,28.152999877929688 C-50.321998596191406,28.152999877929688 -69.7490005493164,8.725000381469727 -69.7490005493164,-15.23900032043457 C-69.7490005493164,-15.23900032043457 -69.7490005493164,-28.152999877929688 -69.7490005493164,-28.152999877929688 C-69.7490005493164,-28.152999877929688 69.7490005493164,-28.152999877929688 69.7490005493164,-28.152999877929688z"></path></g><g opacity="1" transform="matrix(1,0,0,1,495.593994140625,537.9249877929688)"><path stroke-linecap="round" stroke-linejoin="round" fill-opacity="0" stroke="rgb(0,0,0)" stroke-opacity="1" stroke-width="30" d=" M-67.90399932861328,-132.04600524902344 C-67.90399932861328,-132.04600524902344 -46.8650016784668,-124.93399810791016 -46.8650016784668,-124.93399810791016 C-14.505999565124512,-113.99500274658203 10.194000244140625,-87.53099822998047 18.87700080871582,-54.494998931884766 C18.87700080871582,-54.494998931884766 67.90399932861328,132.04600524902344 67.90399932861328,132.04600524902344"></path></g><g opacity="1" transform="matrix(1,0,0,1,483.2239990234375,781.010009765625)"><path stroke-linecap="round" stroke-linejoin="round" fill-opacity="0" stroke="rgb(0,0,0)" stroke-opacity="1" stroke-width="30" d=" M-37.18899917602539,99.10099792480469 C-37.18899917602539,99.10099792480469 109.51200103759766,2.003000020980835 109.51200103759766,2.003000020980835 C128.27699279785156,-10.416999816894531 133.08900451660156,-35.875999450683594 120.1510009765625,-54.28799819946289 C120.1510009765625,-54.28799819946289 80.27300262451172,-111.03900146484375 80.27300262451172,-111.03900146484375 C80.27300262451172,-111.03900146484375 -133.08999633789062,30.180999755859375 -133.08999633789062,30.180999755859375 C-133.08999633789062,30.180999755859375 -91.93299865722656,88.75199890136719 -91.93299865722656,88.75199890136719 C-79.49600219726562,106.45500183105469 -55.229000091552734,111.04000091552734 -37.18899917602539,99.10099792480469z"></path></g></g><g transform="matrix(1,0,0,1,372.12603759765625,346.6090087890625)" opacity="1" style="display: block;"><g opacity="1" transform="matrix(1,0,0,1,163.8719940185547,164.70599365234375)"><path stroke-linecap="round" stroke-linejoin="round" fill-opacity="0" stroke="rgb(0,0,0)" stroke-opacity="1" stroke-width="30" d=" M88.87200164794922,89.70600128173828 C88.87200164794922,89.70600128173828 -56.43000030517578,8.128000259399414 -56.43000030517578,8.128000259399414 C-80.13300323486328,-4.985000133514404 -88.87200164794922,-34.73099899291992 -76.02899932861328,-58.582000732421875 C-64.59400177001953,-79.81700134277344 -39.50600051879883,-89.70600128173828 -16.656999588012695,-81.98200225830078 C-16.656999588012695,-81.98200225830078 88.87000274658203,-46.3120002746582 88.87000274658203,-46.3120002746582"></path></g></g></g></svg>