<svg xmlns="http://www.w3.org/2000/svg" xmlns:xlink="http://www.w3.org/1999/xlink" viewBox="0 0 250 250" width="250" height="250" preserveAspectRatio="xMidYMid meet" style="width: 100%; height: 100%; transform: translate3d(0px, 0px, 0px); content-visibility: visible;"><defs><clipPath id="__lottie_element_2"><rect width="250" height="250" x="0" y="0"></rect></clipPath><mask id="__lottie_element_22"><path fill="#ffffff" clip-rule="nonzero" d=" M111.47699737548828,179.38099670410156 C107.73699951171875,179.38099670410156 104.1449966430664,177.89700317382812 101.49500274658203,175.24600219726562 C101.49500274658203,175.24600219726562 55.60499954223633,129.3560028076172 55.60499954223633,129.3560028076172 C50.09199905395508,123.84300231933594 50.09199905395508,114.90399932861328 55.60499954223633,109.39099884033203 C61.11800003051758,103.87799835205078 70.05699920654297,103.87699890136719 75.57099914550781,109.39099884033203 C75.57099914550781,109.39099884033203 111.06099700927734,144.88099670410156 111.06099700927734,144.88099670410156 C111.06099700927734,144.88099670410156 173.85899353027344,76.71900177001953 173.85899353027344,76.71900177001953 C179.14199829101562,70.98400115966797 188.072998046875,70.61900329589844 193.80799865722656,75.9020004272461 C199.54200744628906,81.18499755859375 199.9080047607422,90.11699676513672 194.625,95.85099792480469 C194.625,95.85099792480469 121.86100006103516,174.82899475097656 121.86100006103516,174.82899475097656 C119.25599670410156,177.656005859375 115.61100006103516,179.2989959716797 111.76699829101562,179.3780059814453 C111.6709976196289,179.3800048828125 111.572998046875,179.38099670410156 111.47699737548828,179.38099670410156" fill-opacity="1"></path></mask></defs><g clip-path="url(#__lottie_element_2)"><g transform="matrix(1,0,0,1,0,0)" opacity="1" style="display: none;"><g opacity="1" transform="matrix(1,0,0,1,143.60699462890625,124.99299621582031)"><path fill="rgb(0,42,42)" fill-opacity="1" d=" M73.26899719238281,-85.71299743652344 C73.19000244140625,-85.8499984741211 73.10600280761719,-85.98500061035156 73.01699829101562,-86.11699676513672 C70.91400146484375,-89.22100067138672 66.61900329589844,-89.71399688720703 62.874000549316406,-89.91200256347656 C24.406999588012695,-91.94300079345703 -14.060999870300293,-93.9749984741211 -52.52799987792969,-96.00700378417969 C-55.10200119018555,-96.14299774169922 -57.755001068115234,-96.26799774169922 -60.185001373291016,-95.40699768066406 C-66.00900268554688,-93.34200286865234 -65.38400268554688,-87.0009994506836 -65.65799713134766,-81.95099639892578 C-66.00800323486328,-75.47699737548828 -66.36000061035156,-69.00299835205078 -66.70999908447266,-62.52799987792969 C-67.41200256347656,-49.58000183105469 -68.11399841308594,-36.63199996948242 -68.81500244140625,-23.683000564575195 C-69.51699829101562,-10.734999656677246 -70.21800231933594,2.2139999866485596 -70.91999816894531,15.161999702453613 C-71.62200164794922,28.110000610351562 -72.3239974975586,41.05799865722656 -73.0250015258789,54.00699996948242 C-73.43599700927734,61.582000732421875 -73.84600067138672,69.15599822998047 -74.25599670410156,76.73100280761719 C-74.48699951171875,80.9749984741211 -74.3290023803711,86.03700256347656 -70.77200317382812,88.36499786376953 C-68.9800033569336,89.53800201416016 -66.72799682617188,89.68599700927734 -64.58799743652344,89.80000305175781 C-25.18600082397461,91.88200378417969 14.21500015258789,93.96399688720703 53.61800003051758,96.0459976196289 C56.62099838256836,96.2040023803711 59.930999755859375,96.26799774169922 62.26100158691406,94.36900329589844 C64.89800262451172,92.22000122070312 65.28299713134766,88.40599822998047 65.46600341796875,85.01000213623047 C68.4000015258789,30.52400016784668 71.33399963378906,-23.961999893188477 74.26899719238281,-78.447998046875 C74.40299987792969,-80.92400360107422 74.48699951171875,-83.58799743652344 73.26899719238281,-85.71299743652344z"></path></g></g><g transform="matrix(0.9735224843025208,0.22859135270118713,-0.22859135270118713,0.9735224843025208,63.59564208984375,-20.69145965576172)" opacity="1" style="display: block;"><g opacity="1" transform="matrix(1,0,0,1,107.96900177001953,124.01799774169922)"><path fill="rgb(228,229,235)" fill-opacity="1" d=" M54.159000396728516,77.31800079345703 C54.159000396728516,77.31800079345703 -43.67399978637695,83.68900299072266 -43.67399978637695,83.68900299072266 C-50.441001892089844,84.12999725341797 -56.28300094604492,79.00199890136719 -56.722999572753906,72.23600006103516 C-56.722999572753906,72.23600006103516 -65.61299896240234,-64.26799774169922 -65.61299896240234,-64.26799774169922 C-66.0530014038086,-71.03500366210938 -60.92599868774414,-76.8759994506836 -54.15999984741211,-77.31700134277344 C-54.15999984741211,-77.31700134277344 43.67399978637695,-83.68800354003906 43.67399978637695,-83.68800354003906 C50.43899917602539,-84.12899780273438 56.28200149536133,-79.0009994506836 56.72200012207031,-72.23500061035156 C56.72200012207031,-72.23500061035156 65.61199951171875,64.26799774169922 65.61199951171875,64.26799774169922 C66.0530014038086,71.03399658203125 60.92499923706055,76.87699890136719 54.159000396728516,77.31800079345703z"></path></g><g opacity="1" transform="matrix(1,0,0,1,107.96900177001953,124.01799774169922)"><path fill="rgb(255,255,255)" fill-opacity="1" d=" M51.72100067138672,72.8280029296875 C51.72100067138672,72.8280029296875 -41.8390007019043,78.9209976196289 -41.8390007019043,78.9209976196289 C-47.30400085449219,79.2760009765625 -52.02399826049805,75.13600158691406 -52.380001068115234,69.66899871826172 C-52.380001068115234,69.66899871826172 -60.972999572753906,-62.2869987487793 -60.972999572753906,-62.2869987487793 C-61.32899856567383,-67.75399780273438 -57.1870002746582,-72.4729995727539 -51.72100067138672,-72.8290023803711 C-51.72100067138672,-72.8290023803711 41.8380012512207,-78.9219970703125 41.8380012512207,-78.9219970703125 C47.30400085449219,-79.2770004272461 52.02399826049805,-75.13500213623047 52.380001068115234,-69.66899871826172 C52.380001068115234,-69.66899871826172 60.972999572753906,62.2859992980957 60.972999572753906,62.2859992980957 C61.32899856567383,67.75199890136719 57.1870002746582,72.47200012207031 51.72100067138672,72.8280029296875z"></path></g><g opacity="1" transform="matrix(1,0,0,1,75.31700134277344,77.86499786376953)"><path fill="rgb(145,166,254)" fill-opacity="1" d=" M-12.727999687194824,-10.383000373840332 C-13.170999526977539,-16.086000442504883 -8.699999809265137,-21.049999237060547 -2.740000009536743,-21.469999313354492 C3.2200000286102295,-21.888999938964844 8.40999984741211,-17.606000900268555 8.854000091552734,-11.902999877929688 C9.295999526977539,-6.199999809265137 4.823999881744385,-1.2350000143051147 -1.1360000371932983,-0.8159999847412109 C-7.09499979019165,-0.3959999978542328 -12.28600025177002,-4.679999828338623 -12.727999687194824,-10.383000373840332z M3.4200000762939453,2.572000026702881 C3.4200000762939453,2.572000026702881 -5.118000030517578,3.1730000972747803 -5.118000030517578,3.1730000972747803 C-12.835000038146973,3.7170000076293945 -18.625,10.144000053405762 -18.052000045776367,17.52899932861328 C-17.857999801635742,20.018999099731445 -15.592000007629395,21.888999938964844 -12.989999771118164,21.70599937438965 C-12.989999771118164,21.70599937438965 14.069000244140625,19.801000595092773 14.069000244140625,19.801000595092773 C16.672000885009766,19.617000579833984 18.625,17.448999404907227 18.43199920654297,14.958999633789062 C17.857999801635742,7.573999881744385 11.13700008392334,2.0290000438690186 3.4200000762939453,2.572000026702881z"></path></g><g opacity="1" transform="matrix(1,0,0,1,107.1050033569336,145.8719940185547)"><path fill="rgb(228,229,235)" fill-opacity="1" d=" M41.38399887084961,-36.54199981689453 C41.38399887084961,-36.54199981689453 -45.60900115966797,-30.87700080871582 -45.60900115966797,-30.87700080871582 C-47.23400115966797,-30.770999908447266 -48.637001037597656,-32.00199890136719 -48.74300003051758,-33.62799835205078 C-48.8489990234375,-35.25299835205078 -47.617000579833984,-36.65599822998047 -45.992000579833984,-36.762001037597656 C-45.992000579833984,-36.762001037597656 41.000999450683594,-42.426998138427734 41.000999450683594,-42.426998138427734 C42.625999450683594,-42.53300094604492 44.02899932861328,-41.30099868774414 44.1349983215332,-39.67599868774414 C44.24100112915039,-38.05099868774414 43.00899887084961,-36.64799880981445 41.38399887084961,-36.54199981689453z M45.01100158691406,-26.225000381469727 C45.01100158691406,-26.225000381469727 45.01100158691406,-26.225000381469727 45.01100158691406,-26.225000381469727 C44.904998779296875,-27.850000381469727 43.50199890136719,-29.082000732421875 41.87699890136719,-28.97599983215332 C41.87699890136719,-28.97599983215332 -45.11600112915039,-23.31100082397461 -45.11600112915039,-23.31100082397461 C-46.74100112915039,-23.204999923706055 -47.972999572753906,-21.801000595092773 -47.867000579833984,-20.176000595092773 C-47.76100158691406,-18.551000595092773 -46.358001708984375,-17.31999969482422 -44.733001708984375,-17.424999237060547 C-44.733001708984375,-17.424999237060547 42.2599983215332,-23.09000015258789 42.2599983215332,-23.09000015258789 C43.8849983215332,-23.195999145507812 45.117000579833984,-24.599000930786133 45.01100158691406,-26.225000381469727z M46,-11.050000190734863 C46,-11.050000190734863 46,-11.050000190734863 46,-11.050000190734863 C45.893001556396484,-12.675000190734863 44.4900016784668,-13.906999588012695 42.8650016784668,-13.800999641418457 C42.8650016784668,-13.800999641418457 -44.12799835205078,-8.13599967956543 -44.12799835205078,-8.13599967956543 C-45.75299835205078,-8.029999732971191 -46.98500061035156,-6.626999855041504 -46.87900161743164,-5.000999927520752 C-46.77299880981445,-3.375999927520752 -45.369998931884766,-2.1449999809265137 -43.744998931884766,-2.25 C-43.744998931884766,-2.25 43.249000549316406,-7.914999961853027 43.249000549316406,-7.914999961853027 C44.874000549316406,-8.022000312805176 46.10499954223633,-9.425000190734863 46,-11.050000190734863z M48.5260009765625,27.743000030517578 C48.5260009765625,27.743000030517578 47.4640007019043,11.451000213623047 47.4640007019043,11.451000213623047 C47.14099884033203,6.478000164031982 42.84600067138672,2.7090001106262207 37.874000549316406,3.0329999923706055 C37.874000549316406,3.0329999923706055 -36.99399948120117,7.9079999923706055 -36.99399948120117,7.9079999923706055 C-41.96799850463867,8.232000350952148 -45.73699951171875,12.526000022888184 -45.41299819946289,17.5 C-45.41299819946289,17.5 -44.35200119018555,33.79199981689453 -44.35200119018555,33.79199981689453 C-44.02899932861328,38.763999938964844 -39.73400115966797,42.534000396728516 -34.76100158691406,42.209999084472656 C-34.76100158691406,42.209999084472656 40.106998443603516,37.33399963378906 40.106998443603516,37.33399963378906 C45.08100128173828,37.01100158691406 48.8489990234375,32.71699905395508 48.5260009765625,27.743000030517578z"></path></g></g><g transform="matrix(0.9972700476646423,-0.07384109497070312,0.07384109497070312,0.9972700476646423,-17.411155700683594,7.126121520996094)" opacity="1" style="display: block;"><g opacity="1" transform="matrix(1,0,0,1,107.96900177001953,124.01799774169922)"><path fill="rgb(228,229,235)" fill-opacity="1" d=" M54.159000396728516,77.31800079345703 C54.159000396728516,77.31800079345703 -43.67399978637695,83.68900299072266 -43.67399978637695,83.68900299072266 C-50.441001892089844,84.12999725341797 -56.28300094604492,79.00199890136719 -56.722999572753906,72.23600006103516 C-56.722999572753906,72.23600006103516 -65.61299896240234,-64.26799774169922 -65.61299896240234,-64.26799774169922 C-66.0530014038086,-71.03500366210938 -60.92599868774414,-76.8759994506836 -54.15999984741211,-77.31700134277344 C-54.15999984741211,-77.31700134277344 43.67399978637695,-83.68800354003906 43.67399978637695,-83.68800354003906 C50.43899917602539,-84.12899780273438 56.28200149536133,-79.0009994506836 56.72200012207031,-72.23500061035156 C56.72200012207031,-72.23500061035156 65.61199951171875,64.26799774169922 65.61199951171875,64.26799774169922 C66.0530014038086,71.03399658203125 60.92499923706055,76.87699890136719 54.159000396728516,77.31800079345703z"></path></g><g opacity="1" transform="matrix(1,0,0,1,107.96900177001953,124.01799774169922)"><path fill="rgb(255,255,255)" fill-opacity="1" d=" M51.72100067138672,72.8280029296875 C51.72100067138672,72.8280029296875 -41.8390007019043,78.9209976196289 -41.8390007019043,78.9209976196289 C-47.30400085449219,79.2760009765625 -52.02399826049805,75.13600158691406 -52.380001068115234,69.66899871826172 C-52.380001068115234,69.66899871826172 -60.972999572753906,-62.2869987487793 -60.972999572753906,-62.2869987487793 C-61.32899856567383,-67.75399780273438 -57.1870002746582,-72.4729995727539 -51.72100067138672,-72.8290023803711 C-51.72100067138672,-72.8290023803711 41.8380012512207,-78.9219970703125 41.8380012512207,-78.9219970703125 C47.30400085449219,-79.2770004272461 52.02399826049805,-75.13500213623047 52.380001068115234,-69.66899871826172 C52.380001068115234,-69.66899871826172 60.972999572753906,62.2859992980957 60.972999572753906,62.2859992980957 C61.32899856567383,67.75199890136719 57.1870002746582,72.47200012207031 51.72100067138672,72.8280029296875z"></path></g><g opacity="1" transform="matrix(1,0,0,1,75.31700134277344,77.86499786376953)"><path fill="rgb(145,166,254)" fill-opacity="1" d=" M-12.727999687194824,-10.383000373840332 C-13.170999526977539,-16.086000442504883 -8.699999809265137,-21.049999237060547 -2.740000009536743,-21.469999313354492 C3.2200000286102295,-21.888999938964844 8.40999984741211,-17.606000900268555 8.854000091552734,-11.902999877929688 C9.295999526977539,-6.199999809265137 4.823999881744385,-1.2350000143051147 -1.1360000371932983,-0.8159999847412109 C-7.09499979019165,-0.3959999978542328 -12.28600025177002,-4.679999828338623 -12.727999687194824,-10.383000373840332z M3.4200000762939453,2.572000026702881 C3.4200000762939453,2.572000026702881 -5.118000030517578,3.1730000972747803 -5.118000030517578,3.1730000972747803 C-12.835000038146973,3.7170000076293945 -18.625,10.144000053405762 -18.052000045776367,17.52899932861328 C-17.857999801635742,20.018999099731445 -15.592000007629395,21.888999938964844 -12.989999771118164,21.70599937438965 C-12.989999771118164,21.70599937438965 14.069000244140625,19.801000595092773 14.069000244140625,19.801000595092773 C16.672000885009766,19.617000579833984 18.625,17.448999404907227 18.43199920654297,14.958999633789062 C17.857999801635742,7.573999881744385 11.13700008392334,2.0290000438690186 3.4200000762939453,2.572000026702881z"></path></g><g opacity="1" transform="matrix(1,0,0,1,107.1050033569336,145.8719940185547)"><path fill="rgb(228,229,235)" fill-opacity="1" d=" M41.38399887084961,-36.54199981689453 C41.38399887084961,-36.54199981689453 -45.60900115966797,-30.87700080871582 -45.60900115966797,-30.87700080871582 C-47.23400115966797,-30.770999908447266 -48.637001037597656,-32.00199890136719 -48.74300003051758,-33.62799835205078 C-48.8489990234375,-35.25299835205078 -47.617000579833984,-36.65599822998047 -45.992000579833984,-36.762001037597656 C-45.992000579833984,-36.762001037597656 41.000999450683594,-42.426998138427734 41.000999450683594,-42.426998138427734 C42.625999450683594,-42.53300094604492 44.02899932861328,-41.30099868774414 44.1349983215332,-39.67599868774414 C44.24100112915039,-38.05099868774414 43.00899887084961,-36.64799880981445 41.38399887084961,-36.54199981689453z M45.01100158691406,-26.225000381469727 C45.01100158691406,-26.225000381469727 45.01100158691406,-26.225000381469727 45.01100158691406,-26.225000381469727 C44.904998779296875,-27.850000381469727 43.50199890136719,-29.082000732421875 41.87699890136719,-28.97599983215332 C41.87699890136719,-28.97599983215332 -45.11600112915039,-23.31100082397461 -45.11600112915039,-23.31100082397461 C-46.74100112915039,-23.204999923706055 -47.972999572753906,-21.801000595092773 -47.867000579833984,-20.176000595092773 C-47.76100158691406,-18.551000595092773 -46.358001708984375,-17.31999969482422 -44.733001708984375,-17.424999237060547 C-44.733001708984375,-17.424999237060547 42.2599983215332,-23.09000015258789 42.2599983215332,-23.09000015258789 C43.8849983215332,-23.195999145507812 45.117000579833984,-24.599000930786133 45.01100158691406,-26.225000381469727z M46,-11.050000190734863 C46,-11.050000190734863 46,-11.050000190734863 46,-11.050000190734863 C45.893001556396484,-12.675000190734863 44.4900016784668,-13.906999588012695 42.8650016784668,-13.800999641418457 C42.8650016784668,-13.800999641418457 -44.12799835205078,-8.13599967956543 -44.12799835205078,-8.13599967956543 C-45.75299835205078,-8.029999732971191 -46.98500061035156,-6.626999855041504 -46.87900161743164,-5.000999927520752 C-46.77299880981445,-3.375999927520752 -45.369998931884766,-2.1449999809265137 -43.744998931884766,-2.25 C-43.744998931884766,-2.25 43.249000549316406,-7.914999961853027 43.249000549316406,-7.914999961853027 C44.874000549316406,-8.022000312805176 46.10499954223633,-9.425000190734863 46,-11.050000190734863z M48.5260009765625,27.743000030517578 C48.5260009765625,27.743000030517578 47.4640007019043,11.451000213623047 47.4640007019043,11.451000213623047 C47.14099884033203,6.478000164031982 42.84600067138672,2.7090001106262207 37.874000549316406,3.0329999923706055 C37.874000549316406,3.0329999923706055 -36.99399948120117,7.9079999923706055 -36.99399948120117,7.9079999923706055 C-41.96799850463867,8.232000350952148 -45.73699951171875,12.526000022888184 -45.41299819946289,17.5 C-45.41299819946289,17.5 -44.35200119018555,33.79199981689453 -44.35200119018555,33.79199981689453 C-44.02899932861328,38.763999938964844 -39.73400115966797,42.534000396728516 -34.76100158691406,42.209999084472656 C-34.76100158691406,42.209999084472656 40.106998443603516,37.33399963378906 40.106998443603516,37.33399963378906 C45.08100128173828,37.01100158691406 48.8489990234375,32.71699905395508 48.5260009765625,27.743000030517578z"></path></g><g opacity="1" transform="matrix(1,0,0,1,132.78799438476562,122.85600280761719)"><path fill="rgb(228,229,235)" fill-opacity="0" d=" M-36.516998291015625,78.12100219726562 C-36.516998291015625,78.12100219726562 27.134000778198242,73.9749984741211 27.134000778198242,73.9749984741211 C32.47200012207031,73.62799835205078 36.516998291015625,69.01899719238281 36.16999816894531,63.68299865722656 C36.16999816894531,63.68299865722656 27.545000076293945,-68.73899841308594 27.545000076293945,-68.73899841308594 C27.197999954223633,-74.07599639892578 22.589000701904297,-78.12100219726562 17.25200080871582,-77.77400207519531 C17.25200080871582,-77.77400207519531 -25.785999298095703,-74.97100067138672 -25.785999298095703,-74.97100067138672 C-25.785999298095703,-74.97100067138672 -21.80699920654297,-70.46700286865234 -21.80699920654297,-70.46700286865234 C-18.55500030517578,-66.78500366210938 -16.836000442504883,-61.99700164794922 -17.003999710083008,-57.08700180053711 C-17.003999710083008,-57.08700180053711 -20.844999313354492,55.097999572753906 -20.844999313354492,55.097999572753906 C-21.01099967956543,59.95199966430664 -23.009000778198242,64.56400299072266 -26.437999725341797,68.00499725341797 C-26.437999725341797,68.00499725341797 -36.516998291015625,78.12100219726562 -36.516998291015625,78.12100219726562z"></path></g></g><g transform="matrix(1,0,0,1,0,0)" opacity="1" style="display: none;"><g opacity="1" transform="matrix(1,0,0,1,154.92599487304688,125.68199920654297)"><path fill="rgb(70,104,241)" fill-opacity="1" d=" M55.91600036621094,-82.36000061035156 C55.22700119018555,-83.10600280761719 54.27899932861328,-83.5459976196289 53.25,-83.5999984741211 C53.25,-83.5999984741211 -42.042999267578125,-88.63300323486328 -42.042999267578125,-88.63300323486328 C-42.042999267578125,-88.63300323486328 -31.9950008392334,-71.85099792480469 -31.9950008392334,-71.85099792480469 C-31.1200008392334,-70.23899841308594 -30.679000854492188,-68.4260025024414 -30.76099967956543,-66.58899688720703 C-30.76099967956543,-66.58899688720703 -36.43299865722656,61.005001068115234 -36.43299865722656,61.005001068115234 C-36.55099868774414,63.6510009765625 -37.83000183105469,65.81900024414062 -39.76900100708008,67.61499786376953 C-39.797000885009766,67.63999938964844 -39.81700134277344,67.66999816894531 -39.845001220703125,67.69499969482422 C-39.845001220703125,67.69499969482422 -56.95600128173828,83.21299743652344 -56.95600128173828,83.21299743652344 C-56.95600128173828,83.21299743652344 43.97600173950195,88.54399871826172 43.97600173950195,88.54399871826172 C43.97600173950195,88.54399871826172 44.02299880981445,88.5459976196289 44.02299880981445,88.5459976196289 C46.12200164794922,88.63300323486328 47.91899871826172,87.04499816894531 48.02899932861328,85.00800323486328 C48.02899932861328,85.00800323486328 56.90299987792969,-79.65399932861328 56.90299987792969,-79.65399932861328 C56.957000732421875,-80.65399932861328 56.60599899291992,-81.61499786376953 55.91600036621094,-82.36000061035156z"></path></g><g opacity="1" transform="matrix(1,0,0,1,182.78799438476562,69.44100189208984)"><path fill="rgb(255,255,255)" fill-opacity="1" d=" M20.78499984741211,-5.953000068664551 C20.78499984741211,-5.953000068664551 20.783000946044922,-5.90500020980835 20.783000946044922,-5.90500020980835 C20.652999877929688,-3.490999937057495 18.591999053955078,-1.6390000581741333 16.17799949645996,-1.7669999599456787 C16.17799949645996,-1.7669999599456787 -16.643999099731445,-3.5 -16.643999099731445,-3.5 C-19.051000595092773,-3.627000093460083 -20.913999557495117,-5.699999809265137 -20.784000396728516,-8.107000350952148 C-20.65399932861328,-10.520999908447266 -18.593000411987305,-12.373000144958496 -16.179000854492188,-12.244999885559082 C-16.179000854492188,-12.244999885559082 16.69099998474121,-10.508999824523926 16.69099998474121,-10.508999824523926 C19.079999923706055,-10.383000373840332 20.913999557495117,-8.342000007629395 20.78499984741211,-5.953000068664551z M15.88700008392334,3.499000072479248 C15.88700008392334,3.499000072479248 -10.461000442504883,2.1070001125335693 -10.461000442504883,2.1070001125335693 C-12.86299991607666,1.9800000190734863 -14.9350004196167,3.8420000076293945 -15.0649995803833,6.244999885559082 C-15.0649995803833,6.244999885559082 -15.067000389099121,6.293000221252441 -15.067000389099121,6.293000221252441 C-15.196000099182129,8.673999786376953 -13.352999687194824,10.723999977111816 -10.972000122070312,10.850000381469727 C-10.972000122070312,10.850000381469727 15.470999717712402,12.246999740600586 15.470999717712402,12.246999740600586 C17.858999252319336,12.373000144958496 19.89699935913086,10.541000366210938 20.024999618530273,8.154000282287598 C20.024999618530273,8.154000282287598 20.027999877929688,8.105999946594238 20.027999877929688,8.105999946594238 C20.158000946044922,5.698999881744385 18.29400062561035,3.625999927520752 15.88700008392334,3.499000072479248z"></path></g></g><g transform="matrix(0.17056360840797424,0,0,0.17056360840797424,153.5809326171875,133.20664978027344)" opacity="0.0006649174131575819" style="display: none;"><g opacity="1" transform="matrix(1,0,0,1,185.16299438476562,160.5989990234375)"><path fill="rgb(255,255,255)" fill-opacity="1" d=" M0,40.95500183105469 C22.618999481201172,40.95500183105469 40.95500183105469,22.618000030517578 40.95500183105469,-0.0010000000474974513 C40.95500183105469,-22.6200008392334 22.618999481201172,-40.95600128173828 0,-40.95600128173828 C-22.618999481201172,-40.95600128173828 -40.95500183105469,-22.6200008392334 -40.95500183105469,-0.0010000000474974513 C-40.95500183105469,22.618000030517578 -22.618999481201172,40.95500183105469 0,40.95500183105469z"></path></g><g opacity="1" transform="matrix(1,0,0,1,185.16400146484375,160.5989990234375)"><path fill="rgb(0,198,255)" fill-opacity="1" d=" M0,35.321998596191406 C19.507999420166016,35.321998596191406 35.32099914550781,19.507999420166016 35.32099914550781,0 C35.32099914550781,-19.506999969482422 19.507999420166016,-35.321998596191406 0,-35.321998596191406 C-19.507999420166016,-35.321998596191406 -35.32099914550781,-19.506999969482422 -35.32099914550781,0 C-35.32099914550781,19.507999420166016 -19.507999420166016,35.321998596191406 0,35.321998596191406z"></path></g></g><g mask="url(#__lottie_element_22)" transform="matrix(0.34801000356674194,0,0,0.34801000356674194,140.87374877929688,118.37374877929688)" opacity="0.015068571428565321" style="display: none;"><rect width="250" height="250" fill="#ffffff"></rect></g><g transform="matrix(0.0000343077044817619,0.00019453951972536743,-0.00019453951972536743,0.0000343077044817619,41.03829574584961,85.13541412353516)" opacity="0.00016461791126900493" style="display: none;"><g opacity="1" transform="matrix(1,0,0,1,49.097999572753906,206.15899658203125)"><path fill="rgb(61,99,255)" fill-opacity="1" d=" M0.11999999731779099,-17.91900062561035 C0.11999999731779099,-17.91900062561035 -2.369999885559082,-9.461999893188477 -2.369999885559082,-9.461999893188477 C-2.865000009536743,-7.771999835968018 -3.7950000762939453,-6.241000175476074 -5.067999839782715,-5.0229997634887695 C-6.311999797821045,-3.7950000762939453 -7.8520002365112305,-2.9059998989105225 -9.538000106811523,-2.443000078201294 C-9.538000106811523,-2.443000078201294 -17.993000030517578,-0.19499999284744263 -17.993000030517578,-0.19499999284744263 C-17.993000030517578,-0.19499999284744263 -9.506999969482422,2.2939999103546143 -9.506999969482422,2.2939999103546143 C-7.828000068664551,2.7829999923706055 -6.300000190734863,3.690999984741211 -5.067999839782715,4.933000087738037 C-3.8329999446868896,6.184000015258789 -2.944999933242798,7.734000205993652 -2.490000009536743,9.432000160217285 C-2.490000009536743,9.432000160217285 -0.11999999731779099,17.91900062561035 -0.11999999731779099,17.91900062561035 C-0.11999999731779099,17.91900062561035 2.368000030517578,9.461999893188477 2.368000030517578,9.461999893188477 C2.8570001125335693,7.7829999923706055 3.7660000324249268,6.255000114440918 5.007999897003174,5.021999835968018 C6.257999897003174,3.7960000038146973 7.794000148773193,2.8989999294281006 9.47599983215332,2.4140000343322754 C9.47599983215332,2.4140000343322754 17.993000030517578,0.04500000178813934 17.993000030517578,0.04500000178813934 C17.993000030517578,0.04500000178813934 9.53600025177002,-2.4149999618530273 9.53600025177002,-2.4149999618530273 C6.10699987411499,-3.4089999198913574 3.440000057220459,-6.110000133514404 2.489000082015991,-9.550999641418457 C2.489000082015991,-9.550999641418457 0.11999999731779099,-17.91900062561035 0.11999999731779099,-17.91900062561035z"></path></g></g></g></svg>