<svg width="44" height="44" viewBox="0 0 44 44" fill="none" xmlns="http://www.w3.org/2000/svg">
    <circle cx="22" cy="22" r="22" fill="#5573D7"/>
    <path d="M34.1816 32.8272L28.195 26.8418C29.9302 24.7586 30.7954 22.0866 30.6107 19.3818C30.4261 16.6769 29.2057 14.1473 27.2035 12.3193C25.2013 10.4913 22.5714 9.50558 19.861 9.56718C17.1505 9.62878 14.5681 10.733 12.651 12.6501C10.7339 14.5671 9.62975 17.1495 9.56815 19.86C9.50655 22.5705 10.4923 25.2003 12.3203 27.2025C14.1483 29.2047 16.6779 30.4251 19.3827 30.6098C22.0876 30.7944 24.7595 29.9292 26.8427 28.194L32.8282 34.1807C32.917 34.2695 33.0225 34.34 33.1387 34.3881C33.2548 34.4362 33.3792 34.461 33.5049 34.461C33.6306 34.461 33.755 34.4362 33.8712 34.3881C33.9873 34.34 34.0928 34.2695 34.1816 34.1807C34.2705 34.0918 34.341 33.9863 34.3891 33.8702C34.4372 33.7541 34.462 33.6296 34.462 33.5039C34.462 33.3782 34.4372 33.2538 34.3891 33.1377C34.341 33.0216 34.2705 32.9161 34.1816 32.8272ZM11.5049 20.1126C11.5049 18.41 12.0098 16.7456 12.9557 15.3299C13.9017 13.9142 15.2462 12.8108 16.8192 12.1592C18.3922 11.5077 20.1231 11.3372 21.7931 11.6693C23.463 12.0015 24.9969 12.8214 26.2009 14.0254C27.4048 15.2293 28.2247 16.7632 28.5569 18.4331C28.889 20.1031 28.7186 21.834 28.067 23.407C27.4154 24.9801 26.312 26.3246 24.8963 27.2705C23.4806 28.2164 21.8162 28.7213 20.1136 28.7213C17.8312 28.7188 15.643 27.811 14.0291 26.1971C12.4152 24.5832 11.5074 22.395 11.5049 20.1126Z" fill="white"/>
</svg>
