<svg id="SvgjsSvg1001" width="256" height="256" xmlns="http://www.w3.org/2000/svg" version="1.1" xmlns:xlink="http://www.w3.org/1999/xlink" xmlns:svgjs="http://svgjs.com/svgjs"><defs id="SvgjsDefs1002"></defs><g id="SvgjsG1008"><svg xmlns="http://www.w3.org/2000/svg" data-name="Layer 1" viewBox="0 0 512 512" width="256" height="256"><g data-name="&amp;lt;Group&amp;gt;" fill="#000000" class="color000 svgShape"><g data-name="&amp;lt;Group&amp;gt;" fill="#000000" class="color000 svgShape"><path fill="#07b9ff" d="M470.48,262.43v71.03a15.658,15.658,0,0,1-15.66,15.66H430.84l-.6.17a41.818,41.818,0,0,0-80.34.33l-1.59-.5H317.36V233.47H427.04l33.95,14.57A15.637,15.637,0,0,1,470.48,262.43Z" data-name="&amp;lt;Group&amp;gt;" class="color77f7aa svgShape"></path><path fill="#def6ff" d="M430.24 349.29a41.818 41.818 0 1 1-40.12-30.03A41.671 41.671 0 0 1 430.24 349.29zM399.41 179.85l27.63 53.62H317.36V162.88h54.21A31.339 31.339 0 0 1 399.41 179.85z" data-name="&amp;lt;Group&amp;gt;" class="colordeffe8 svgShape"></path><path fill="#07b9ff" d="M317.36,272.02v77.1H155.24l-.82.24a41.816,41.816,0,0,0-80.22-.21l-.1-.03H57.18a15.658,15.658,0,0,1-15.66-15.66V272.02Z" data-name="&amp;lt;Group&amp;gt;" class="color77f7aa svgShape"></path><path fill="#def6ff" d="M317.36 233.47v38.55H41.52V140.45a31.332 31.332 0 0 1 31.32-31.33h213.2a31.332 31.332 0 0 1 31.32 31.33v93.02zM154.42 349.36a41.816 41.816 0 1 1-40.14-30.1A41.533 41.533 0 0 1 154.42 349.36z" data-name="&amp;lt;Group&amp;gt;" class="colordeffe8 svgShape"></path></g><g data-name="&amp;lt;Group&amp;gt;" fill="#000000" class="color000 svgShape"><path fill="#248bb3" d="M464.694,238.851,434.164,225.7l-25.929-50.374A41.039,41.039,0,0,0,371.57,153H327V140.45C327,117.661,308.824,99,286.04,99H72.84C50.056,99,32,117.661,32,140.45V333.46A25.18,25.18,0,0,0,57.18,359h5.327c-.024,1-.037,1.359-.037,2.01A51.81,51.81,0,1,0,166.09,361c0-.651-.014-1-.038-2h172.3c-.024,1-.038,1.359-.038,2.01A51.81,51.81,0,1,0,441.93,361c0-.651-.014-1-.038-2H454.82A25.18,25.18,0,0,0,480,333.46V262.43A25.385,25.385,0,0,0,464.694,238.851ZM371.57,173a20.989,20.989,0,0,1,18.951,11.256L410.637,223H327V173ZM72.84,119h213.2A21.147,21.147,0,0,1,307,140.45V262H52V140.45C52,128.688,61.084,119,72.84,119Zm41.44,273.88a31.825,31.825,0,0,1-30.5-40.865l.007-.024a31.816,31.816,0,0,1,61.036.181A31.822,31.822,0,0,1,114.28,392.88Zm0-83.74A51.979,51.979,0,0,0,67.359,339H57.18c-3.121,0-5.18-2.419-5.18-5.54V282H307v57H161.2A51.939,51.939,0,0,0,114.28,309.14Zm275.84,83.74a31.837,31.837,0,0,1-30.605-40.513l0-.017a31.814,31.814,0,1,1,30.6,40.53ZM460,333.46c0,3.121-2.059,5.54-5.18,5.54H437.04a51.8,51.8,0,0,0-93.853,0H327V243h97.985l31.838,14A5.765,5.765,0,0,1,460,262.43Z" data-name="&amp;lt;Compound Path&amp;gt;" class="color24b361 svgShape"></path></g></g></svg></g></svg>