<svg id="SvgjsSvg1001" width="256" height="256" xmlns="http://www.w3.org/2000/svg" version="1.1" xmlns:xlink="http://www.w3.org/1999/xlink" xmlns:svgjs="http://svgjs.com/svgjs"><defs id="SvgjsDefs1002"></defs><g id="SvgjsG1008"><svg xmlns="http://www.w3.org/2000/svg" viewBox="0 0 60 60" width="256" height="256"><path d="M34.123 6.185v3.6h1.99v-3.6c-.68-.08-1.35-.08-1.99 0z" fill="#07b9ff" class="color000 svgShape"></path><path d="M26.743 14.485v1.4h-.24c-.55 0-1 .44-1 1 0 .55.45 1 1 1h1.67v.82c0 2.52 1.35 4.72 3.37 5.94v1.46l-1.38.34v5.2h9.89v-5.21l-1.35-.33v-1.47c2.01-1.22 3.36-3.42 3.36-5.93v-.82h1.66c.56 0 1-.45 1-1 0-.56-.44-1-1-1h-.24v-1.4c0-3.4-2.04-6.44-5.2-7.75-.06-.02-.11-.04-.17-.06v4.11c0 .56-.45 1-1 1h-3.99c-.56 0-1-.44-1-1v-4.12c-.06.02-.12.05-.18.07a8.333 8.333 0 0 0-5.2 7.75zm3.43 3.4h9.89v.82c0 2.72-2.22 4.94-4.95 4.94a4.95 4.95 0 0 1-4.94-4.94v-.82zm18.41 23.09c.55 0 1-.44 1-1v-5.95c0-3.07-2.08-5.73-5.06-6.48l-2.467-.61v4.713h1.171a1 1 0 0 1 1 1v8.327h4.356zM28.003 33.645h14.22v7.33h-14.22zM20.643 39.975c0 .56.44 1 1 1h4.361v-8.327a1 1 0 0 1 1-1h1.163v-4.709l-2.454.606a6.672 6.672 0 0 0-5.07 6.48v5.95z" fill="#07b9ff" class="color000 svgShape"></path><path d="M50.523 43.105h-31.93a7.164 7.164 0 0 0-6.18-3.55c-2.8 0-5.35 1.65-6.51 4.19-.04.08-.03.17.01.24.05.07.13.12.21.12h5.41l1.71 2.61-1.71 2.62h-5.41a.26.26 0 0 0-.21.11c-.04.08-.05.17-.01.24a7.169 7.169 0 0 0 6.51 4.19c2.63 0 4.94-1.43 6.18-3.55h31.93c1.98 0 3.6-1.62 3.6-3.61s-1.62-3.61-3.6-3.61z" fill="#07b9ff" class="color000 svgShape"></path></svg></g></svg>